<?xml version="1.0" standalone="no"?>
<!DOCTYPE svg PUBLIC "-//W3C//DTD SVG 1.1//EN" "http://www.w3.org/Graphics/SVG/1.1/DTD/svg11.dtd" >
<svg xmlns="http://www.w3.org/2000/svg" xmlns:xlink="http://www.w3.org/1999/xlink" version="1.1">
<metadata></metadata>
<defs>
<font id="care_symbolsregular" horiz-adv-x="2048" >
<font-face units-per-em="2048" ascent="1638" descent="-410" />
<missing-glyph horiz-adv-x="1024" />
<glyph horiz-adv-x="0" />
<glyph unicode="&#xd;" horiz-adv-x="1024" />
<glyph unicode=" "  horiz-adv-x="1024" />
<glyph unicode="&#x09;" horiz-adv-x="1024" />
<glyph unicode="&#xa0;" horiz-adv-x="1024" />
<glyph unicode="," />
<glyph unicode="-" d="M379 1042q-2 268 184.5 452.5t456.5 186.5q272 2 457.5 -183.5t187.5 -457.5q2 -268 -187.5 -456.5t-457.5 -188.5q-270 0 -454.5 188.5t-186.5 458.5zM485 1040q-2 -231 150.5 -386.5t384.5 -155.5q225 0 383 158.5t160 383.5t-157 380t-386 157q-229 2 -381 -152.5 t-154 -384.5zM608 1337h127l92 -479l111 479h147l107 -487l94 487h123l-147 -698h-132l-120 522l-121 -522h-135z" />
<glyph unicode="." d="M379 1042q-2 268 184.5 452.5t456.5 186.5q272 2 457.5 -183.5t187.5 -457.5q2 -268 -187.5 -456.5t-457.5 -188.5q-270 0 -454.5 188.5t-186.5 458.5zM469 205v129h1112v-129h-1112zM485 1040q-2 -231 150.5 -386.5t384.5 -155.5q225 0 383 158.5t160 383.5t-157 380 t-386 157q-229 2 -381 -152.5t-154 -384.5zM608 1337h127l92 -479l111 479h147l107 -487l94 487h123l-147 -698h-132l-120 522l-121 -522h-135z" />
<glyph unicode="/" d="M379 1042q-2 268 184.5 452.5t456.5 186.5q272 2 457.5 -183.5t187.5 -457.5q2 -268 -187.5 -456.5t-457.5 -188.5q-270 0 -454.5 188.5t-186.5 458.5zM469 0v129h1112v-129h-1112zM469 205v129h1112v-129h-1112zM485 1040q-2 -231 150.5 -386.5t384.5 -155.5 q225 0 383 158.5t160 383.5t-157 380t-386 157q-229 2 -381 -152.5t-154 -384.5zM608 1337h127l92 -479l111 479h147l107 -487l94 487h123l-147 -698h-132l-120 522l-121 -522h-135z" />
<glyph unicode="0" d="M143 242l31 157q27 141 176 422q104 152 260 158l117 4l-129 277v133h1088l247 -1151h-1790zM313 377h1444l-90 518l-1057 -51q-59 -2 -139 -86q-25 -35 -68 -135l-65 -158zM582 700l98 115h84v-409h-88v315l-45 -62zM729 1262l117 -271l786 39l-45 230zM924 700l98 115 h86v-409h-88v315l-45 -62zM1274 610l2 72l16 39q0 20 17 37l34 35q37 27 93 28q39 2 71 -16l23 -12l29 -33l12 -25l16 -30l15 -43l2 -52l-7 -78l-8 -20q-18 -47 -59 -80l-39 -20l-53 -9q-49 0 -117 56l-37 61l-8 35zM1358 610q0 -70 6 -82l12 -26q25 -25 62 -25q18 0 30 6 l27 23l21 49l2 55v33l-5 37q-16 53 -77 70q-31 0 -52 -27l-20 -51z" />
<glyph unicode="1" d="M143 242l31 157q27 141 176 422q104 152 260 158l117 4l-129 277v133h1088l247 -1151h-1790zM313 377h1444l-90 518l-1057 -51q-59 -2 -139 -86q-25 -35 -68 -135l-65 -158zM625 700l98 115h68v-409h-72v313l-45 -62zM729 1262l117 -271l786 39l-45 230zM903 514l55 4 q6 -39 29 -61q20 -14 51 -21q41 0 64.5 32t23.5 73q0 90 -88 94q-47 2 -75 -43l-50 6l41 223h207v-55h-170l-18 -115q14 14 35 21l43 12q47 0 96 -43q33 -29 35 -96q2 -90 -84 -137q-20 -12 -60 -15q-25 -2 -49 8l-43 25q-43 37 -43 88zM1274 612l2 66q4 135 127 143l35 -6 l24 -10l17 -12l22 -27l12 -25l13 -41q6 -20 6 -88q0 -59 -12 -114q-18 -43 -43 -68l-37 -18l-37 -4q-135 -1 -129 204zM1323 612q-2 -164 80 -163q29 0 57 34q20 25 23 129q2 147 -80 166q-78 0 -80 -166z" />
<glyph unicode="2" d="M143 242l31 157q27 141 176 422q104 152 260 158l117 4l-129 277v133h1088l247 -1151h-1790zM313 377h1444l-90 518l-1057 -51q-59 -2 -139 -86q-25 -35 -68 -135l-65 -158zM561 666q0 39 17 61q16 63 135 84q37 0 75 -18q14 -4 25 -17l29 -35l18 -63q0 -25 -14 -51 l-10 -15l-23 -24l-25 -17l-49 -36l-75 -56h198v-76h-297v72l113 98l80 62q10 4 16 43l-16 37l-45 20q-14 0 -45 -16l-17 -23l-6 -43zM729 1262l117 -271l786 39l-45 230zM918 604l4 74l16 37q0 23 14 37l35 34q39 27 94 29q41 2 72 -16l21 -13l30 -32l13 -23l16 -33l12 -43 l4 -51l-6 -76l-8 -22q-16 -47 -61 -80l-37 -20l-54 -9q-49 0 -116 56l-37 61l-8 33zM1004 604q0 -70 6 -82l12 -26q25 -25 61 -25q14 0 29 6l27 25l22 47l2 55v33l-4 37q-6 23 -20 39q-6 16 -58 30q-31 0 -51 -26l-20 -51zM1331 610l2 72l17 37q0 16 16 39l35 35 q37 27 92 28q39 2 72 -16l22 -12l29 -33l14 -25l15 -30l14 -43l2 -52l-4 -78l-8 -20q-16 -41 -62 -80l-37 -20l-53 -9q-47 0 -119 56l-37 61l-8 35zM1417 610q-4 -70 4 -82l15 -26q25 -25 61 -25q14 0 29 6l26 23l21 49l4 55v33l-6 37q0 18 -19 37q-6 18 -59 33 q-31 0 -49 -27l-23 -51z" />
<glyph unicode="3" d="M117 332l1820 1175l62 -94l-1821 -1175zM117 1413l63 94l1819 -1175l-62 -94zM143 242l31 157q27 141 176 422q104 152 260 158l117 4l-129 277v133h1088l247 -1151h-1790zM313 377h1444l-90 518l-1057 -51q-59 -2 -139 -86q-25 -35 -68 -135l-65 -158zM729 1262 l117 -271l786 39l-45 230z" />
<glyph unicode="4" d="M92 1380h133l51 -133l-40 127l325 -1001h940l334 1005h133l-383 -1134h-1110zM487 827v107l336 475h99v-463h98v-119h-98v-172h-127v172h-308zM635 946h160v234zM1090 1028q-2 119 14 180q23 90 88 152q55 43 133 43l53 -6l52 -19q45 -25 73 -71q16 -27 45 -107l11 -76 l4 -96q4 -102 -25 -209q-63 -166 -213 -166q-231 0 -235 375zM1180 1028q-4 -297 145 -301q145 -4 148 301q2 299 -148 299q-59 0 -100 -53q-43 -68 -45 -246z" />
<glyph unicode="5" d="M92 1374h144l325 -1001h940l334 1005h133l-383 -1134h-1110zM483 846l101 10q6 -63 49 -113q43 -33 96 -34q74 -2 121 59q43 55 43 131t-45 125t-119 49q-98 0 -139 -78l-90 13l73 395h383v-90h-307l-41 -207q68 49 146 51q102 2 170.5 -71.5t68.5 -178.5 q0 -117 -73.5 -195.5t-190.5 -80.5q-156 -2 -227 129q-19 35 -19 86zM1090 1028q-2 119 14 180q23 90 88 152q55 43 133 43l53 -6l52 -19q45 -25 73 -71q16 -27 45 -107l11 -76l4 -96q4 -102 -25 -209q-63 -166 -213 -166q-231 0 -235 375zM1180 1028q-4 -297 145 -301 q145 -4 148 301q2 299 -148 299q-59 0 -100 -53q-43 -68 -45 -246z" />
<glyph unicode="6" d="M92 1380h133l51 -133l-40 127l325 -1001h940l334 1005h133l-383 -1134h-1110zM539 1284v119h434v-119l-189 -635h-131l193 635h-307zM1073 1028q-2 119 14 180q23 90 89 152q55 43 133 43l53 -6l51 -19q45 -25 74 -71q16 -27 45 -107l10 -76l4 -96q4 -102 -24 -209 q-63 -166 -213 -166q-232 0 -236 375zM1163 1028q-4 -297 146 -301q145 -4 147 301q2 299 -147 299q-59 0 -101 -53q-43 -68 -45 -246z" />
<glyph unicode="7" d="M2 1233l55 110l1942 -1011l-62 -94zM92 1380h133l47 -129q31 -12 86 -26q16 0 78 33.5t88 35.5q35 2 123 -47l62 -35q29 -12 47 -12q31 0 162 70q76 31 122 33q49 2 144 -52l65 -37l23 -6l33 -8q16 0 106 51l47 27l45 20l39 13l37 4q35 0 68 -23l55 -28l55 -19h17l18 4 l43 129h133l-383 -1134h-1110zM117 332l1870 1020l53 -103l-1862 -1011zM303 1153l258 -780h940l260 786l-41 -4q-16 0 -69 25q-31 25 -74 26q-29 2 -96 -30q-96 -70 -170 -72q-47 -2 -140.5 44t-134.5 48l-106 -47q-106 -47 -170 -49q-55 -2 -139 41t-95 43q-29 0 -67 -21 l-51 -26l-35 -13l-33 6q-20 8 -37 23z" />
<glyph unicode="8" d="M84 1386h145l338 -1009h930l334 1005l143 2l-385 -1146h-1118zM582 967q180 20 299 88l157 90l117 61l25 6l16 7l39 4q6 -6 16 -37q0 -12 -16 -29l-31 -18l-35 -17l-63 -24l-70 -33l2 -23q0 -10 31 -26l217 43l141 63l7 -4l28 -10q0 -14 -4 -18l-8 -25l-137 -68l-219 -61 l16 -14l180 39q25 6 37 14l178 78q27 0 29 -45l-170 -107l-231 -86l-5 -16l185 51l139 65l49 17l21 -31l-45 -39q-43 -37 -78 -55l-56 -29l-192 -71l172 34l111 47q12 0 22 -10l8 -20l-8 -13l-8 -8l-27 -18l-20 -12l-27 -11l-57 -14l-103 -31q-31 0 -65 -10l-102 -20 q-63 0 -173 20l-227 43q-37 0 -45 -14z" />
<glyph unicode="9" horiz-adv-x="2156" d="M133 471h643l-33 -119l-270 74l-16 -59l272 -72l-16 -59l-256 -68l16 -57l221 59l-14 -57l104 -29l31 117l131 35l131 -35l31 -115l104 27l-14 57l221 -59l15 57l-254 68l-17 59l271 72l-15 59l-272 -74l-31 119h805l-248 1149h-1085v-133h987l45 -230l-991 -112 q-170 -18 -260 -160l-113 -176q-82 -129 -92 -180zM303 606l41 86q41 86 72 129l73 103q86 86 140 86l1026 112l90 -516h-1442zM848 326l39 145h119l38 -145l-98 -27z" />
<glyph unicode=":" horiz-adv-x="2156" d="M385 852q0 266 187.5 453.5t453.5 187.5t454.5 -187.5t188.5 -453.5t-188.5 -453.5t-454.5 -187.5t-453.5 187.5t-187.5 453.5zM487 852q0 -223 158 -381t381 -158q225 0 383 157t158 382t-158 382t-383 157q-223 0 -381 -158t-158 -381zM799 1006h78l59 -201l53 201h78 l51 -201l60 201h82l-101 -308h-78l-53 199l-53 -199h-80z" />
<glyph unicode=";" horiz-adv-x="2156" d="M180 680l215 59q-10 55 -10 113q0 57 10 113l-215 59l29 102l215 -57q70 190 234.5 307t367.5 117q205 0 370 -115.5t234 -308.5l215 57l29 -102l-215 -59q10 -55 10 -113q0 -57 -10 -113l215 -59l-29 -102l-215 57q-70 -193 -234.5 -308.5t-369.5 -115.5 q-203 0 -367.5 116.5t-234.5 307.5l-215 -57z" />
<glyph unicode="&#x3c;" d="M303 655q0 129 74 246q-49 -98 -49 -207q0 -201 128 -329.5t328 -128.5q201 0 314 163q-121 -88 -271 -88q-201 0 -329.5 129t-128.5 328q0 131 73 248q-49 -98 -49 -211q0 -199 129 -329t328 -130q150 0 272 90q16 33 27 66q-117 -78 -256 -78q-199 0 -329 130t-130 329 q0 127 74 245q-49 -98 -49 -208q0 -201 129 -330t327 -129q131 0 246 71l10 58q-100 -51 -213 -51q-199 0 -327.5 128t-128.5 326q0 131 71 250q-49 -98 -49 -211q0 -199 129 -328t328 -129q100 0 193 41q4 16 4 37q0 6 -4 25q-74 -29 -150 -29q-199 0 -329 130t-130 329 t129 328t330 129q274 0 408 -248q-63 96 -167 152.5t-218 56.5q-162 0 -284 -95.5t-163 -252.5q-10 -39 -10 -70q0 -70 43 -164v49q0 201 129 330t328 129q270 0 407 -248q-137 211 -385 211q-199 0 -329 -130t-130 -329q0 -25 4 -49q16 -33 41 -61q-12 213 116 352t341 139 q274 0 408 -247q-137 211 -385 210q-193 0 -328 -122q-143 -131 -131 -320l2 -33l43 -39q6 193 135 317t322 124q129 0 236.5 -67.5t170.5 -182.5q-137 211 -385 211q-184 0 -312 -118t-145 -300l50 -31q33 166 159.5 269.5t296.5 103.5q197 0 325 -130t128 -329 q0 -195 -128 -325.5t-321 -130.5h-32q190 8 314 137t124 319t-143 330q-41 39 -54 47q-59 35 -164 43q123 -55 198 -170t75 -250q0 -195 -128 -325.5t-321 -130.5h-32q190 8 314 137t124 319q0 137 -75 251t-202 169q-35 0 -71 -8q119 -57 189.5 -169t70.5 -243 q0 -195 -128 -325.5t-321 -130.5h-33q190 8 314.5 137t124.5 319q0 127 -66.5 236.5t-179.5 169.5l-55 -19q98 -63 155.5 -166.5t57.5 -220.5q0 -195 -128 -325.5t-321 -130.5h-33q190 8 314.5 137t124.5 319q0 240 -197 377l-53 -31q162 -137 162 -346q0 -199 -129 -327.5 t-330 -128.5q-199 0 -329 130t-130 328zM862 727q88 -39 185 -39q65 1 124 19q-16 162 -137 276q-131 -98 -172 -256z" />
<glyph unicode="=" d="M303 655q0 129 74 246q-49 -98 -49 -207q0 -201 128 -329.5t328 -128.5q201 0 314 163q-121 -88 -271 -88q-201 0 -329.5 129t-128.5 328q0 121 73 248l131 227q-49 -98 -49 -211q0 -199 129 -328t328 -129q100 0 193 41q4 20 4 37q0 8 -4 25q-74 -29 -150 -29 q-199 0 -329 130t-130 329t129 328t330 129q274 0 408 -248q-63 96 -167 152.5t-218 56.5q-160 0 -282 -96.5t-165 -251.5q-10 -37 -10 -70q0 -70 43 -164v49q0 201 129 330t328 129q264 0 407 -248l131 -227q-137 211 -385 211q-184 0 -312 -118t-145 -300l50 -31 q33 166 159.5 269.5t296.5 103.5q197 0 325 -130t128 -329q0 -195 -128 -325.5t-321 -130.5h-32q190 8 314 137t124 319q0 188 -143 330q-39 39 -54 47q-59 35 -164 43q123 -55 198 -170t75 -250q0 -195 -128 -325.5t-321 -130.5h-295q190 8 314.5 137t124.5 319 q0 240 -197 377l-53 -31q162 -137 162 -346q0 -199 -129 -327.5t-330 -128.5q-199 0 -329 130t-130 328zM862 727q88 -39 185 -39q65 1 124 19q-16 162 -137 276q-131 -98 -172 -256z" />
<glyph unicode="&#x3e;" d="M180 860q0 461 189 682q203 238 655 238q453 0 655 -240q189 -219 189 -680t-189 -680q-203 -238 -655 -237q-453 0 -655 237q-188 219 -189 680zM379 860q0 -86 58.5 -157.5t142.5 -94.5q20 -176 188 -176q20 0 45 4q33 -29 82 -28q47 0 94 24q-53 -172 -57 -291 q59 -25 131 -24q76 0 141 28q-59 135 -84 295q43 -25 86 -24q41 0 74 26q190 -14 221 197q80 23 130 96.5t50 159.5q0 135 -106 205q6 25 6 47q0 88 -106 117q4 111 -31 160t-141 59q-100 131 -279 131q-156 0 -264 -146q-180 -18 -180 -184q0 -23 4 -45q-102 -27 -103 -117 q0 -25 8 -49q-111 -92 -110 -213zM645 729q74 0 131 -53q14 -18 78 -101q41 -53 86 -53q14 0 94 13q-109 113 -108 237q0 43 53 134t61 128q4 -33 60.5 -122t56.5 -150q0 -133 -76 -215l9 -31l32 -6q35 0 155 118t157 126q-35 -37 -58 -119q-23 -88 -41 -113 q-35 -49 -125 -49q-47 0 -110 12q-8 -37 -8 -84q0 -100 36 -231q-29 -6 -63 -6q-39 0 -74 6l49 313q-51 -14 -108 -14q-143 0 -184 41q-6 6 -39 98t-64 121z" />
<glyph unicode="?" d="M590 1231q25 203 147.5 313.5t327.5 110.5q190 0 324 -103q145 -111 147 -297q2 -176 -221 -374q-84 -74 -115 -115q-12 -14 -41 -88q-10 -49 -14 -154h-174v56q0 184 100 299q18 20 131 125q78 72 103 104q47 63 47 135q0 115 -84 189.5t-201 74.5q-236 0 -293 -297z M961 164v205h204v-205h-204z" />
<glyph unicode="@" d="M326 281q143 309 143 538q0 197 -123 514l170 166q270 18 352 262h312q76 -244 352 -262l170 -166q-123 -317 -123 -514q0 -229 143 -538l-221 -230q-109 29 -180 29q-143 0 -297 -121q-154 121 -297 121q-72 0 -180 -29zM391 293l172 -180q92 20 164 20q152 0 297 -106 q145 106 297 106q72 0 164 -20l172 180q-133 291 -133 526q0 203 112 500l-127 129q-123 10 -225 78.5t-143 179.5h-234q-41 -111 -143 -179.5t-225 -78.5l-127 -129q113 -297 112 -500q0 -236 -133 -526z" />
<glyph unicode="A" d="M92 1380h133l47 -129q31 -12 86 -26q16 0 78 33.5t88 35.5h3q36 0 120 -47l62 -35q29 -12 47 -12q31 0 162 70q76 31 122 33h4q49 0 140 -52l65 -37l23 -6l33 -8q16 0 106 51l47 27l45 20l39 13l37 4q35 0 68 -23l55 -28l55 -19h17l18 4l43 129h133l-383 -1134h-1110z M303 1153l258 -780h940l260 786l-41 -4q-16 0 -69 25q-31 25 -74 26h-4q-29 0 -92 -30q-96 -70 -170 -72h-4q-47 0 -137 44q-94 46 -134 48l-106 -47q-106 -47 -170 -49h-5q-54 0 -134 41q-84 43 -95 43q-29 0 -67 -21l-51 -26l-35 -13l-33 6q-20 8 -37 23zM588 831 q0 92 53 152.5t143 60.5q125 0 187 -133l20 -65l4 -101l-6 -104q-2 -23 -18 -74q-33 -96 -135 -131l-31 -6l-31 -4q-63 0 -119 41l-37 53l-22 80l102 8q6 -53 23 -73l55 -21l49 12l33 41l25 60l12 80v-41l-33 -13l-88 -26q-80 0 -133 61.5t-53 142.5zM696 831q0 -47 19 -71 q16 -16 76 -35q27 0 67 29q13 12 25 86q0 45 -24.5 78.5t-67.5 33.5q-31 0 -70 -32q-16 -23 -19 -41zM1061 621l106 6q0 -51 33 -86q10 -12 60 -21q41 0 73 35q14 14 33 86q0 37 -33 78q-33 33 -73 35q-37 2 -54 -15q-18 -6 -39 -39l-98 13l59 319h318v-100h-234l-18 -101 l86 15q82 0 136 -58.5t54 -140.5q0 -61 -49 -147q-55 -61 -161 -74q-80 0 -140 49l-45 60z" />
<glyph unicode="B" d="M92 1380h133l47 -129q31 -12 86 -26q16 0 78 33.5t88 35.5h3q36 0 120 -47l62 -35q29 -12 47 -12q31 0 162 70q76 31 122 33h4q49 0 140 -52l65 -37l23 -6l33 -8q16 0 106 51l47 27l45 20l39 13l37 4q35 0 68 -23l55 -28l55 -19h17l18 4l43 129h133l-383 -1134h-1110z M303 1153l258 -780h940l260 786l-41 -4q-16 0 -69 25q-31 25 -74 26h-4q-29 0 -92 -30q-96 -70 -170 -72h-4q-47 0 -137 44q-94 46 -134 48l-106 -47q-106 -47 -170 -49h-5q-54 0 -134 41q-84 43 -95 43q-29 0 -67 -21l-51 -26l-35 -13l-33 6q-20 8 -37 23zM469 0v129h1112 v-129h-1112zM588 831q0 92 53 152.5t143 60.5q125 0 187 -133l20 -65l4 -101l-6 -104q-2 -23 -18 -74q-33 -96 -135 -131l-31 -6l-31 -4q-63 0 -119 41l-37 53l-22 80l102 8q6 -53 23 -73l55 -21l49 12l33 41l25 60l12 80v-41l-33 -13l-88 -26q-80 0 -133 61.5t-53 142.5z M696 831q0 -47 19 -71q16 -16 76 -35q27 0 67 29q13 12 25 86q0 45 -24.5 78.5t-67.5 33.5q-31 0 -70 -32q-16 -23 -19 -41zM1061 621l106 6q0 -51 33 -86q10 -12 60 -21q41 0 73 35q14 14 33 86q0 37 -33 78q-33 33 -73 35q-37 2 -54 -15q-18 -6 -39 -39l-98 13l59 319h318 v-100h-234l-18 -101l86 15q82 0 136 -58.5t54 -140.5q0 -61 -49 -147q-55 -61 -161 -74q-80 0 -140 49l-45 60z" />
<glyph unicode="C" d="M92 1380h133l47 -129q31 -12 86 -26q16 0 78 33.5t88 35.5h3q36 0 120 -47l62 -35q29 -12 47 -12q31 0 162 70q76 31 122 33h4q49 0 140 -52l65 -37l23 -6l33 -8q16 0 106 51l47 27l45 20l39 13l37 4q35 0 68 -23l55 -28l55 -19h17l18 4l43 129h133l-383 -1134h-1110z M303 1153l258 -780h940l260 786l-41 -4q-16 0 -69 25q-31 25 -74 26h-4q-29 0 -92 -30q-96 -70 -170 -72h-4q-47 0 -137 44q-94 46 -134 48l-106 -47q-106 -47 -170 -49h-5q-54 0 -134 41q-84 43 -95 43q-29 0 -67 -21l-51 -26l-35 -13l-33 6q-20 8 -37 23zM586 725v6 q0 307 221 311h6q64 0 111 -38q16 -10 39 -54l24 -78l-102 -6l-13 31l-18 35q-2 8 -51 22q-27 0 -49 -16q-16 -8 -25 -23l-20 -36l-17 -78l33 22q37 18 84 19q80 0 132 -58.5t52 -138.5l-6 -61q-6 -63 -92 -125l-96 -23q-76 0 -154 70q-57 68 -59 219zM700 643l11 -59 l39 -45l49 -15q8 0 63 31l17 39l10 45q0 49 -31 80q-18 25 -65 33q-10 0 -66 -31l-22 -35zM1061 735v8q0 165 86 261q41 33 115 34q16 0 77 -18q37 -18 66 -53l43 -95l10 -59l4 -78q1 -13 0 -25q0 -152 -90 -241q-14 -14 -47 -29l-63 -8q-197 0 -201 303zM1163 735v-14 q0 -108 29 -158q16 -18 70 -41q18 0 65 39q27 39 29 174v15q0 115 -29 161q-31 37 -70 39h-3q-28 0 -58 -35q-31 -74 -33 -180z" />
<glyph unicode="D" d="M84 1380h133l49 -131l43 -18l41 -8q16 0 77.5 33.5t88.5 35.5h3q37 0 118 -45q84 -47 113 -49h2q31 0 157 70q61 33 123 35h5q64 0 141 -54q78 -41 118 -51q31 0 119 57q45 29 84 43l37 9l37 6q29 0 67 -21l56 -28l55 -19h14l19 4l43 129h133l-383 -1136h-1108zM297 1153 l258 -782h938l260 788l-41 -4q-12 0 -67 23q-66 27 -76 28q-47 0 -94 -32q-96 -68 -170 -70h-4q-49 0 -139 44q-94 46 -134 48l-115 -47q-115 -47 -161 -49h-5q-55 0 -135 41q-84 43 -94 43q-12 0 -65 -19l-58 -30l-28 -13l-33 6zM469 0v129h1112v-129h-1112zM578 725v6 q0 307 221 311h6q64 0 110 -38q16 -10 39 -54l25 -78l-102 -6l-13 31l-18 35q-2 8 -51 22q-27 0 -50 -16q-16 -8 -24 -23l-21 -36l-16 -78l33 22q37 18 84 19q80 0 132 -58.5t52 -138.5l-6 -61q-6 -63 -92 -125l-96 -23q-76 0 -154 70q-57 68 -59 219zM692 643l10 -59 l39 -45l50 -15q8 0 63 31l16 39l11 45q0 49 -31 80q-18 25 -66 33q-10 0 -65 -31l-23 -35zM1053 735v8q0 165 86 261q41 33 114 34q16 0 78 -18q37 -18 66 -53l43 -95l10 -59l4 -78q1 -13 0 -25q0 -152 -90 -241q-14 -14 -47 -29l-64 -8q-197 0 -200 303zM1155 735v-14 q0 -108 29 -158q16 -18 69 -41q18 0 66 39q27 39 29 174v15q0 115 -29 161q-31 37 -70 39h-3q-28 0 -58 -35q-31 -74 -33 -180z" />
<glyph unicode="E" d="M92 1380h133l47 -129q31 -12 86 -26q16 0 78 33.5t88 35.5h3q36 0 120 -47l62 -35q29 -12 47 -12q31 0 162 70q76 31 122 33h4q49 0 140 -52l65 -37l23 -6l33 -8q16 0 106 51l47 27l45 20l39 13l37 4q35 0 68 -23l55 -28l55 -19h17l18 4l43 129h133l-383 -1134h-1110z M303 1153l258 -780h940l260 786l-41 -4q-16 0 -69 25q-31 25 -74 26h-4q-29 0 -92 -30q-96 -70 -170 -72h-4q-47 0 -137 44q-94 46 -134 48l-106 -47q-106 -47 -170 -49h-5q-54 0 -134 41q-84 43 -95 43q-29 0 -67 -21l-51 -26l-35 -13l-33 6q-20 8 -37 23zM553 578v86 l268 378h80v-370h78v-94h-78v-138h-102v138h-246zM672 672h127v188zM1044 748l5 88q2 47 18 79q41 133 178 138h8q46 0 80 -21l27 -16l12 -10l23 -29l37 -82l16 -84l2 -63l-6 -95l-19 -71q-12 -49 -69 -107l-45 -24q-16 -8 -66 -11h-3q-60 0 -142 68q-57 72 -57 209 q0 15 1 31zM1149 748l4 -111q0 -16 4 -25l19 -39l32 -30l37 -11l35 7l33 28q16 31 24 74l9 107q1 19 1 36q0 84 -32 129q-25 43 -70 52q-37 0 -63 -33l-25 -80z" />
<glyph unicode="F" d="M84 1380h133l49 -131l43 -18l41 -8q16 0 77.5 33.5t88.5 35.5h3q37 0 118 -45q84 -47 113 -49h2q31 0 157 70q61 33 123 35h5q64 0 141 -54q78 -41 118 -51q31 0 119 57q45 29 84 43l37 9l37 6q29 0 67 -21l56 -28l55 -19h14l19 4l43 129h133l-383 -1136h-1108zM297 1153 l258 -782h938l260 788l-41 -4q-12 0 -67 23q-66 27 -76 28q-47 0 -94 -32q-96 -68 -170 -70h-4q-49 0 -139 44q-94 46 -134 48l-115 -47q-115 -47 -161 -49h-5q-55 0 -135 41q-84 43 -94 43q-12 0 -65 -19l-58 -30l-28 -13l-33 6zM469 0v129h1112v-129h-1112zM571 561v86 l269 379h80v-371h77v-94h-77v-137h-103v137h-246zM690 655h127v189zM1063 731l4 88q2 47 18 80q41 133 179 137h8q46 0 80 -20l26 -17l13 -10l22 -28l37 -82l16 -84l2 -64l-6 -94l-18 -72q-12 -49 -70 -106l-45 -25q-16 -8 -65 -10h-3q-60 0 -143 68q-56 71 -56 204 q0 17 1 35zM1167 731l4 -110q0 -16 5 -25l18 -39l33 -31l37 -10l34 6l33 29q16 31 25 74l8 106q1 19 1 36q0 84 -32 130q-25 43 -69 51q-37 0 -64 -33l-24 -79z" />
<glyph unicode="G" d="M84 1380h133l49 -131l43 -18l41 -8q16 0 77.5 33.5t88.5 35.5h3q37 0 118 -45q84 -47 113 -49h2q31 0 157 70q61 33 123 35h5q64 0 141 -54q78 -41 118 -51q31 0 119 57q45 29 84 43l37 9l37 6q29 0 67 -21l56 -28l55 -19h14l19 4l43 129h133l-383 -1136h-1108zM297 1153 l258 -782h938l260 788l-41 -4q-12 0 -67 23q-66 27 -76 28q-47 0 -94 -32q-96 -68 -170 -70h-4q-49 0 -139 44q-95 46 -134 48l-115 -47q-115 -47 -161 -49h-5q-54 0 -135 41q-84 43 -94 43q-12 0 -65 -19l-58 -30l-28 -13l-33 6zM469 0v129h1112v-129h-1112zM586 612 l102 13q0 -59 33 -93l61 -22q41 0 70 30.5t29 71.5q0 39 -27 67t-66 28l-32 -7l-35 -6l8 99h27q10 0 71 18q25 20 27 57l-18 45q-4 10 -58 27q-16 0 -55 -20l-18 -29l-11 -53l-102 16q0 47 20 76q6 23 43 59q57 43 123 43q49 0 92 -24q23 -6 66 -62l22 -78q0 -37 -16 -61 q-12 -31 -39 -51l29 -17q14 -8 26 -28q27 -34 27 -101q0 -70 -61 -133q-43 -45 -133 -47h-16q-45 0 -66 10l-62 31l-49 61zM1073 721v8q0 166 86 262q41 33 115 35q16 0 78 -18q37 -18 65 -54l43 -94l10 -59l5 -80v-64l-7 -36q0 -33 -27.5 -85.5t-56.5 -78.5 q-16 -14 -47 -29l-63 -8q-197 0 -201 301zM1176 721q-1 -18 -1 -35q0 -76 29 -135q25 -25 70 -43q12 0 65 41q27 39 29 172v8q0 205 -98 209h-3q-28 0 -59 -37q-16 -31 -24 -76z" />
<glyph unicode="H" d="M84 1386h145l50 -133l16 -4l63 13l62 6l26 -2q12 0 52 -4l20 -2l37 -13l94 -30q27 0 60 47q2 4 47 71q115 115 137 183l16 49l11 73v33l-2 33l6 47l24 45l13 -61l10 -115v-27q0 -76 -43 -129q-8 -23 -142 -178q-49 -57 -73 -104l-39 -76q-31 -86 -49 -111l-47 -49l45 -6 q35 0 98 33q47 29 94 55l27 -6q10 -14 12 -31l4 -43v-24l-4 -35l-6 -35l-41 -154l12 -20l19 16l22 21l10 18l25 60l45 178l16 2h11l14 -12v-11l-6 -71l-8 -41l-15 -47q-31 -100 -63 -144l-4 -18q0 -4 6 -10l12 -13l23 6l14 11q29 29 98 170l60 121l10 -3l6 5l23 4q1 -3 1 -6 q0 -32 -53 -136l-43 -86l-22 -49l4 -8l4 -4l12 -2q45 0 97 108l120 256l7 -30l2 -29l-6 -55l-9 -54l2 -28l11 -35q27 27 45 127l16 90l10 76l-12 112q0 6 -20 136q-10 66 -11 92q0 129 8 162l11 41l12 30l33 66q31 61 61 88l6 -12l-28 -91l-29 -100q-25 -86 -29 -180 l21 -178l127 61l45 14l47 13q76 0 125 -21l88 -37l41 129h143l-385 -1146h-1118zM307 1157l260 -780h930l260 784q-23 0 -49 15q-55 30 -119 30h-4q-29 0 -98 -39q-76 -43 -103 -49q0 -313 -116 -405l-11 -4q-31 0 -45 77q-86 -201 -168 -204q-16 0 -30 8l-19 12l-32 -20 l-48 -17l-12 2q-65 0 -65 56q0 25 10 39l-21 -7q-18 -12 -32 -12q-6 0 -13 4q-18 25 -24 49l6 54l43 161l-6 33q-2 12 -17 21q-29 -20 -94 -56l-88 -32l-39 6q-43 12 -51 57l61 82q25 33 29 76l-2 20q-4 8 -57 29l-17 6l-47 10l-47 4l-31 -2z" />
<glyph unicode="I" d="M2 1233l55 110l1942 -1011l-62 -94zM92 1380h133l47 -129q31 -12 86 -26q16 0 78 33.5t88 35.5h3q36 0 120 -47l62 -35q29 -12 47 -12q31 0 162 70q76 31 122 33h4q49 0 140 -52l65 -37l23 -6l33 -8q16 0 106 51l47 27l45 20l39 13l37 4q35 0 68 -23l55 -28l55 -19h17 l18 4l43 129h133l-383 -1134h-1110zM117 332l1870 1020l53 -103l-1862 -1011zM303 1153l258 -780h940l260 786l-41 -4q-16 0 -69 25q-31 25 -74 26h-4q-29 0 -92 -30q-96 -70 -170 -72h-4q-47 0 -137 44q-94 46 -134 48l-106 -47q-106 -47 -170 -49h-5q-54 0 -134 41 q-84 43 -95 43q-29 0 -67 -21l-51 -26l-35 -13l-33 6q-20 8 -37 23z" />
<glyph unicode="J" d="M270 211l801 1395l780 -1395h-1581zM436 307h1250l-617 1102zM735 594l6 53l21 60q25 51 76 84l47 22l49 6q33 0 51 -10l31 -23l43 -43l26 -71l-84 -21l-20 47l-20 27q-12 8 -33 14q-25 0 -31 -4l-23 -16l-26 -23l-14 -28l-11 -37l-2 -37q-2 -31 6 -59l11 -39l39 -43 l18 -9l35 -6l14 2l21 23l20 26q12 12 21 58l84 -19q-6 -29 -25 -69q-10 -23 -45 -60l-39 -28q-6 -4 -47 -11l-51 5l-31 10l-21 14q-35 18 -71 82l-17 55zM1245 352v453h98v-359h37v-94h-135z" />
<glyph unicode="K" d="M117 332l1820 1175l62 -94l-1821 -1175zM117 1413l63 94l1819 -1175l-62 -94zM270 211l801 1395l780 -1395h-1581zM436 307h1250l-617 1102z" />
<glyph unicode="L" d="M143 242l31 157q10 55 92 183l113 176q98 154 260 157l993 115l-45 230h-989v133h1088l247 -1151h-1790zM313 377h1444l-90 518l-1028 -115q-55 0 -139 -86l-74 -102q-35 -49 -72 -127zM633 596q0 33 22 66q25 22 78 36q31 0 62 -24q18 -16 43 -78q0 -43 -31 -70.5 t-74 -29.5h-3q-70 0 -97 100zM1006 596q0 33 22 66q25 22 78 36q31 0 61 -24q18 -16 43 -78q0 -96 -104 -100h-3q-70 0 -97 100zM1376 596q0 29 25 66q23 22 76 36q31 0 61 -24q18 -16 43 -78q0 -96 -104 -100h-3q-70 0 -98 100z" />
<glyph unicode="M" d="M143 242l31 157q10 55 92 183l113 176q98 154 260 157l993 115l-45 230h-989v133h1088l247 -1151h-1790zM313 377h1444l-90 518l-1028 -115q-55 0 -139 -86l-74 -102q-35 -49 -72 -127zM735 588q0 29 25 65q23 23 76 37q31 0 61 -24q18 -16 43 -78q0 -96 -104 -101h-3 q-70 0 -98 101zM1214 588q0 29 25 65q23 23 76 37q66 0 104 -102q0 -96 -104 -101h-3q-70 0 -98 101z" />
<glyph unicode="N" d="M143 242l31 157q10 55 92 183l113 176q98 154 260 157l993 115l-45 230h-989v133h1088l247 -1151h-1790zM313 377h1444l-90 518l-1028 -115q-55 0 -139 -86l-74 -102q-35 -49 -72 -127zM997 588q0 29 25 65q23 23 76 37q66 0 104 -102q0 -96 -104 -101h-3q-70 0 -98 101z " />
<glyph unicode="O" d="M117 332l1820 1175l62 -94l-1821 -1175zM117 1413l63 94l1819 -1175l-62 -94zM143 242l31 157q10 55 92 183l113 176q98 154 260 157l993 115l-45 230h-989v133h1088l247 -1151h-1790zM313 377h1444l-90 518l-1028 -115q-55 0 -139 -86l-74 -102q-35 -49 -72 -127z" />
<glyph unicode="P" d="M379 838v6q1 264 185 446q186 184 456 187h6q268 1 452 -183q186 -186 187 -458v-6q1 -264 -187 -451q-190 -189 -458 -189q-270 0 -454.5 188.5t-186.5 459.5zM485 836v-6q1 -227 151 -381q152 -156 384 -156q225 0 383 159t160 384v6q0 222 -157 374q-159 154 -386 156 h-6q-225 0 -375 -152q-152 -154 -154 -384zM735 596l230 602h106l246 -602h-123l-66 172h-215l-63 -172h-115zM946 864h148l-54 133l-22 66l-21 -51z" />
<glyph unicode="Q" d="M379 838v6q0 264 185 446q186 185 456 187h6q268 0 452 -183q185 -186 187 -458v-6q0 -264 -187 -451q-190 -189 -458 -189q-270 0 -454.5 188.5t-186.5 459.5zM485 836v-6q0 -227 151 -381q152 -156 384 -156q225 0 383 159t160 384v6q0 221 -157 374q-159 154 -386 156 h-6q-225 0 -375 -152q-152 -155 -154 -384zM817 502v604h230l49 -4q12 -2 43 -6q53 -8 73 -27l31 -27l19 -34q18 -35 20 -86v-11q0 -34 -10 -57l-17 -37l-22 -26q-47 -55 -180 -56h-127v-233h-109zM926 834h127l55 2l43 20l23 62q0 35 -17 53l-35 28l-69 5h-127v-170z" />
<glyph unicode="R" d="M379 838v6q1 264 185 446q186 184 456 187h6q268 1 452 -183q186 -186 187 -458v-6q1 -264 -187 -451q-190 -189 -458 -189q-270 0 -454.5 188.5t-186.5 459.5zM469 0v129h1112v-129h-1112zM485 836v-6q1 -227 151 -381q152 -156 384 -156q225 0 383 159t160 384v6 q0 222 -157 374q-159 154 -386 156h-6q-225 0 -375 -152q-152 -154 -154 -384zM817 502v604h230l49 -4q12 -2 43 -6q53 -8 73 -27l31 -27l19 -34q18 -35 20 -86v-11q0 -33 -10 -57l-17 -37l-22 -26q-47 -55 -180 -56h-127v-233h-109zM926 834h127l55 2l43 20l23 62 q0 35 -17 53l-35 28l-69 5h-127v-170z" />
<glyph unicode="S" d="M379 838v6q1 264 185 446q186 184 456 187h6q268 1 452 -183q186 -186 187 -458v-6q1 -264 -187 -451q-190 -189 -458 -189q-270 0 -454.5 188.5t-186.5 459.5zM485 836v-6q1 -227 151 -381q152 -156 384 -156q225 0 383 159t160 384v6q0 222 -157 374q-159 154 -386 156 h-6q-225 0 -375 -152q-152 -154 -154 -384zM807 487v656h457v-107h-342v-159h292v-109h-292v-281h-115z" />
<glyph unicode="T" d="M379 838v6q1 264 185 446q186 184 456 187h6q268 1 452 -183q186 -186 187 -458v-6q1 -264 -187 -451q-190 -189 -458 -189q-270 0 -454.5 188.5t-186.5 459.5zM469 0v129h1112v-129h-1112zM485 836v-6q1 -227 151 -381q152 -156 384 -156q225 0 383 159t160 384v6 q0 222 -157 374q-159 154 -386 156h-6q-225 0 -375 -152q-152 -154 -154 -384zM807 487v656h457v-107h-342v-159h292v-109h-292v-281h-115z" />
<glyph unicode="U" d="M96 332l1821 1175l61 -94l-1820 -1175zM96 1413l64 94l1818 -1175l-61 -94zM358 838v6q0 264 184 446q186 184 457 187h6q268 1 452 -183q186 -186 188 -458v-6q1 -264 -187 -451q-190 -189 -459 -189q-270 0 -454.5 188.5t-186.5 459.5zM465 836v-6q1 -227 151 -381 q152 -156 383 -156q225 0 383 159t160 384v6q0 222 -156 374q-158 154 -387 156h-6q-225 0 -375 -152q-152 -154 -153 -384z" />
<glyph unicode="V" d="M297 113v1448h1456v-1448h-1456zM412 221h405q-158 27 -274 139q-127 121 -131 275v-414zM412 1044q43 152 152 261.5t259 140.5h-411v-402zM485 836v-6q1 -227 151 -381q152 -156 384 -156q225 0 383 159t160 384v6q0 222 -157 374q-159 154 -386 156h-6 q-225 0 -375 -152q-152 -154 -154 -384zM731 821q0 29 25 66q23 23 75 37q66 -1 105 -103q0 -96 -105 -100h-3q-70 0 -97 100zM1118 821q0 37 23 66q25 23 78 37q31 0 61 -25q18 -17 43 -78q0 -41 -31.5 -70.5t-72.5 -29.5q-72 0 -101 100zM1214 221h420v412 q-39 -154 -152.5 -267.5t-267.5 -144.5zM1217 1446q152 -25 266 -140.5t153 -269.5l-2 410h-417z" />
<glyph unicode="W" d="M297 113v1448h1456v-1448h-1456zM412 221h405q-158 27 -274 139q-127 121 -131 275v-414zM412 1044q43 152 152 261.5t259 140.5h-411v-402zM485 836v-6q1 -227 151 -381q152 -156 384 -156q225 0 383 159t160 384v6q0 222 -157 374q-159 154 -386 156h-6 q-225 0 -375 -152q-152 -154 -154 -384zM920 821q0 29 24 66q23 23 76 37q65 -1 104 -103q0 -96 -104 -100h-3q-70 0 -97 100zM1214 221h420v412q-39 -154 -152.5 -267.5t-267.5 -144.5zM1217 1446q152 -25 266 -140.5t153 -269.5l-2 410h-417z" />
<glyph unicode="X" d="M2 -86l1927 1929l94 -94l-1935 -1913zM43 1724l96 86l1901 -1896l-94 -78zM297 113v1448h1456v-1448h-1456zM412 221h405q-158 27 -274 139q-127 121 -131 275v-414zM412 1044q43 152 152 261.5t259 140.5h-411v-402zM485 836v-6q1 -227 151 -381q152 -156 384 -156 q225 0 383 159t160 384v6q0 222 -157 374q-159 154 -386 156h-6q-225 0 -375 -152q-152 -154 -154 -384zM1214 221h420v412q-39 -154 -152.5 -267.5t-267.5 -144.5zM1217 1446q152 -25 266 -140.5t153 -269.5l-2 410h-417z" />
<glyph unicode="Y" d="M297 113v1448h1456v-1448h-1456zM412 221h405q-160 27 -276 139q-125 119 -129 275v-414zM412 1044q43 152 152 261.5t259 140.5h-411v-402zM485 836v-6q0 -227 151 -381q152 -156 384 -156q225 0 383 159t160 384v6q0 221 -157 374q-159 154 -386 156h-6 q-225 0 -375 -152q-152 -155 -154 -384zM608 821q0 29 25 66q23 23 76 37q65 -1 104 -103q0 -96 -104 -100h-3q-70 0 -98 100zM936 821q0 29 25 66q23 23 75 37q66 -1 105 -103q0 -96 -105 -100h-3q-70 0 -97 100zM1214 221h420v412q-39 -154 -152.5 -267.5t-267.5 -144.5z M1217 1446q152 -25 266 -140.5t153 -269.5l-2 410h-417zM1262 821q0 37 22 66q25 23 78 37q31 0 61 -25q18 -17 43 -78q0 -41 -31.5 -70.5t-72.5 -29.5q-72 0 -100 100z" />
<glyph unicode="Z" d="M184 991h627l213 590l221 -590h586l-463 -327l225 -582l-565 373l-561 -381l221 598z" />
<glyph unicode="[" horiz-adv-x="2156" d="M301 53h1452v107h-1452v-107zM301 207v1444h1452v-1444h-1452zM414 1137q43 152 152.5 260t258.5 139h-411v-399zM416 319h399q-152 43 -260.5 152t-138.5 258v-410zM487 928q-2 -231 151 -386t384 -155q223 0 381 159t160 382t-157 377.5t-384 156.5q-229 2 -381 -151.5 t-154 -382.5zM733 911q0 43 30 73t73 30t71.5 -30t28.5 -73q0 -41 -29.5 -70.5t-70.5 -29.5q-43 0 -73 28.5t-30 71.5zM1120 911q0 43 29 73t72 30t72.5 -30t29.5 -73t-29.5 -71.5t-72.5 -28.5q-41 0 -71 29.5t-30 70.5zM1217 315h417v410q-39 -152 -152 -265.5t-265 -144.5 zM1219 1536q154 -25 266 -138.5t151 -269.5l-2 408h-415z" />
<glyph unicode="\" horiz-adv-x="2156" d="M301 53h1452v107h-1452v-107zM301 207v1444h1452v-1444h-1452zM414 1137q43 152 152.5 260t258.5 139h-411v-399zM416 322h399q-154 43 -258 149q-111 111 -141 262v-411zM487 928q-2 -231 151 -386t384 -155q223 0 381 159t160 382t-157 377.5t-384 156.5 q-229 2 -381 -151.5t-154 -382.5zM924 924q0 43 29.5 72.5t72.5 29.5t71.5 -29.5t28.5 -72.5q0 -41 -29.5 -71t-70.5 -30q-43 0 -72.5 29t-29.5 72zM1217 315h417v410q-39 -152 -152 -265.5t-265 -144.5zM1219 1536q154 -25 266 -138.5t151 -269.5l-2 408h-415z" />
<glyph unicode="]" horiz-adv-x="2156" d="M403 100h1248v93h-1248v-93zM403 231h1248v93h-1248v-93zM403 362v1242h1248v-1242h-1248zM502 1161q37 131 130 224.5t222 119.5h-352v-344zM504 461h344q-131 37 -224.5 130t-119.5 222v-352zM565 983q-2 -197 129 -331t328 -134q193 0 328 136t137 329t-135.5 325 t-329.5 134q-197 2 -326 -130t-131 -329zM938 981q0 37 25.5 61.5t62.5 24.5q35 0 60.5 -25.5t25.5 -60.5q0 -37 -24.5 -62.5t-61.5 -25.5t-62.5 25.5t-25.5 62.5zM1190 457h358v352q-33 -131 -130 -228t-228 -124zM1190 1505q131 -20 229 -118.5t131 -231.5l-2 350h-358z " />
<glyph unicode="^" horiz-adv-x="2156" d="M301 129v1446h1452v-1446h-1452zM416 238h403q-158 27 -274 139q-125 118 -129 274v-413zM416 1059q43 152 151.5 261.5t257.5 139.5h-409v-401zM1217 238h417v411q-39 -154 -152 -267t-265 -144zM1219 1460q152 -25 268 -143q110 -112 149 -266l-2 409h-415z" />
<glyph unicode="_" horiz-adv-x="2156" d="M301 129v1446h1452v-1446h-1452zM416 244h1222v1216h-544l-678 -678v-538zM416 934l526 526h-162l-364 -364v-162zM416 1247l211 213h-211v-213z" />
<glyph unicode="`" horiz-adv-x="2156" d="M186 682l27 -104l88 24v-473h1452v473l86 -22l29 102l-115 31v278l115 31l-29 104l-86 -24v473h-1452v-473l-88 22l-27 -102l115 -31v-278zM416 244v389l610 164l612 -164v-389h-1222zM416 743v218l403 -109zM416 1071v389h1222v-389l-612 -164zM1235 852l403 109v-218z " />
<glyph unicode="a" d="M297 113v1448h1456v-1448h-1456zM412 221h1222v1225h-1222v-1225zM412 1284v162q371 -178 602 -180h5q228 0 615 182v-145q-403 -180 -626 -183h-5q-197 0 -591 164z" />
<glyph unicode="b" d="M297 113v1448h1456v-1448h-1456zM412 221h1222v1225h-1222v-1225zM623 360v971h114v-971h-114zM958 360v971h115v-971h-115zM1311 360v971h114v-971h-114z" />
<glyph unicode="c" d="M297 113v1448h1456v-1448h-1456zM412 221h1222v1225h-1222v-1225zM537 442v115h970v-115h-970zM537 795v114h970v-114h-970zM537 1130v115h970v-115h-970z" />
<glyph unicode="d" d="M84 1380h133l49 -131l43 -18l41 -8q16 0 77.5 33.5t88.5 35.5h3q37 0 118 -45q84 -47 113 -49h2q31 0 157 70q61 33 123 35h5q64 0 141 -54q78 -41 118 -51q31 0 119 57q45 29 84 43l37 9l37 6q29 0 67 -21l56 -28l55 -19h14l19 4l43 129h133l-383 -1136h-1108zM297 1153 l258 -782h938l260 788l-41 -4q-12 0 -67 23q-66 27 -76 28q-47 0 -94 -32q-96 -68 -170 -70h-4q-49 0 -139 44q-94 46 -134 48l-115 -47q-115 -47 -161 -49h-5q-55 0 -135 41q-84 43 -94 43q-12 0 -65 -19l-58 -30l-28 -13l-33 6zM555 915v119h434v-119l-188 -487h-131 l192 487h-307zM1063 731l4 88q2 47 18 80q41 133 179 137h8q46 0 80 -20l26 -17l13 -10l22 -28l37 -82l16 -84l2 -64l-6 -94l-18 -72q-12 -49 -70 -106l-45 -25q-16 -8 -65 -10h-3q-60 0 -143 68q-56 71 -56 204q0 17 1 35zM1167 731l4 -110q0 -16 5 -25l18 -39l33 -31 l37 -10l34 6l33 29q16 31 25 74l8 106q1 19 1 36q0 84 -32 130q-25 43 -69 51q-37 0 -64 -33l-24 -79z" />
<glyph unicode="e" d="M84 1380h133l49 -131l43 -18l41 -8q16 0 77.5 33.5t88.5 35.5h3q37 0 118 -45q84 -47 113 -49h2q31 0 157 70q61 33 123 35h5q64 0 141 -54q78 -41 118 -51q31 0 119 57q45 29 84 43l37 9l37 6q29 0 67 -21l56 -28l55 -19h14l19 4l43 129h133l-383 -1136h-1108zM297 1153 l258 -782h938l260 788l-41 -4q-12 0 -67 23q-66 27 -76 28q-47 0 -94 -32q-96 -68 -170 -70h-4q-49 0 -139 44q-94 46 -134 48l-115 -47q-115 -47 -161 -49h-5q-55 0 -135 41q-84 43 -94 43q-12 0 -65 -19l-58 -30l-28 -13l-33 6zM469 0v129h1112v-129h-1112zM586 621l106 6 q0 -51 33 -86q10 -12 59 -21q41 0 74 35q14 14 33 86q0 37 -33 78q-33 33 -74 35q-37 2 -53 -15q-18 -6 -39 -39l-98 13l59 319h318v-100h-234l-18 -101l86 15q82 0 136 -58.5t54 -140.5q0 -61 -49 -147q-55 -61 -162 -74q-80 0 -139 49l-45 60zM1063 731l4 88q2 47 18 80 q41 133 179 137h8q46 0 80 -20l26 -17l13 -10l22 -28l37 -82l16 -84l2 -64l-6 -94l-18 -72q-12 -49 -70 -106l-45 -25q-16 -8 -65 -10h-3q-60 0 -143 68q-56 71 -56 204q0 17 1 35zM1167 731l4 -110q0 -16 5 -25l18 -39l33 -31l37 -10l34 6l33 29q16 31 25 74l8 106 q1 19 1 36q0 84 -32 130q-25 43 -69 51q-37 0 -64 -33l-24 -79z" />
<glyph unicode="f" d="M84 1380h133l49 -131l43 -18l41 -8q16 0 77.5 33.5t88.5 35.5h3q37 0 118 -45q84 -47 113 -49h2q31 0 157 70q61 33 123 35h5q64 0 141 -54q78 -41 118 -51q31 0 119 57q45 29 84 43l37 9l37 6q29 0 67 -21l56 -28l55 -19h14l19 4l43 129h133l-383 -1136h-1108zM297 1153 l258 -782h938l260 788l-41 -4q-12 0 -67 23q-66 27 -76 28q-47 0 -94 -32q-96 -68 -170 -70h-4q-49 0 -139 44q-95 46 -134 48l-115 -47q-115 -47 -161 -49h-5q-54 0 -135 41q-84 43 -94 43q-12 0 -65 -19l-58 -30l-28 -13l-33 6zM467 0v129h487v-129h-487zM571 561v86 l269 379h80v-371h77v-94h-77v-137h-103v137h-246zM690 655h127v189zM1063 731l4 88q2 47 18 80q41 133 179 137h8q46 0 80 -20l26 -17l13 -10l22 -28l37 -82l16 -84l2 -64l-6 -94l-18 -72q-12 -49 -70 -106l-45 -25q-16 -8 -65 -10h-3q-60 0 -143 68q-56 71 -56 204 q0 17 1 35zM1090 0v129h487v-129h-487zM1167 731l4 -110q0 -16 5 -25l18 -39l33 -31l37 -10l34 6l33 29q16 31 25 74l8 106q1 19 1 36q0 84 -32 130q-25 43 -69 51q-37 0 -64 -33l-24 -79z" />
<glyph unicode="g" d="M84 1380h133l49 -131l43 -18l41 -8q16 0 77.5 33.5t88.5 35.5h3q37 0 118 -45q84 -47 113 -49h2q31 0 157 70q61 33 123 35h5q64 0 141 -54q78 -41 118 -51q31 0 119 57q45 29 84 43l37 9l37 6q29 0 67 -21l56 -28l55 -19h14l19 4l43 129h133l-383 -1136h-1108zM297 1153 l258 -782h938l260 788l-41 -4q-12 0 -67 23q-66 27 -76 28q-47 0 -94 -32q-96 -68 -170 -70h-4q-49 0 -139 44q-95 46 -134 48l-115 -47q-115 -47 -161 -49h-5q-54 0 -135 41q-84 43 -94 43q-12 0 -65 -19l-58 -30l-28 -13l-33 6zM586 612l102 13q0 -59 33 -93l61 -22 q41 0 70 30.5t29 71.5q0 39 -27 67t-66 28l-32 -7l-35 -6l8 99h27q10 0 71 18q25 20 27 57l-18 45q-4 10 -58 27q-16 0 -55 -20l-18 -29l-11 -53l-102 16q0 47 20 76q6 23 43 59q57 43 123 43q49 0 92 -24q23 -6 66 -62l22 -78q0 -37 -16 -61q-12 -31 -39 -51l29 -17 q14 -8 26 -28q27 -34 27 -101q0 -70 -61 -133q-43 -45 -133 -47h-16q-45 0 -66 10l-62 31l-49 61zM1073 721v8q0 166 86 262q41 33 115 35q16 0 78 -18q37 -18 65 -54l43 -94l10 -59l5 -80v-64l-7 -36q0 -33 -27.5 -85.5t-56.5 -78.5q-16 -14 -47 -29l-63 -8 q-197 0 -201 301zM1176 721q-1 -18 -1 -35q0 -76 29 -135q25 -25 70 -43q12 0 65 41q27 39 29 172v8q0 205 -98 209h-3q-28 0 -59 -37q-16 -31 -24 -76z" />
<glyph unicode="h" d="M297 113v1448h1456v-1448h-1456zM412 221h1222v1225h-1222v-1225zM958 360v971h115v-971h-115z" />
<glyph unicode="i" d="M297 113v1448h1456v-1448h-1456zM412 221h1222v1225h-1222v-1225zM537 795v114h970v-114h-970z" />
<glyph unicode="j" d="M297 113v1448h1456v-1448h-1456zM412 221h405q-158 27 -274 139q-127 121 -131 275v-414zM412 1044q43 152 152 261.5t259 140.5h-411v-402zM485 836v-6q0 -227 151 -381q152 -156 384 -156q225 0 383 159t160 384v6q0 221 -157 374q-159 154 -386 156h-6 q-225 0 -375 -152q-152 -155 -154 -384zM1214 221h420v412q-39 -154 -152.5 -267.5t-267.5 -144.5zM1217 1446q152 -25 266 -140.5t153 -269.5l-2 410h-417z" />
<glyph unicode="k" d="M92 1380h133l47 -129q31 -12 86 -26q16 0 78 33.5t88 35.5h3q36 0 120 -47l62 -35q29 -12 47 -12q31 0 162 70q76 31 122 33h4q49 0 140 -52l65 -37l23 -6l33 -8q16 0 106 51l47 27l45 20l39 13l37 4q35 0 68 -23l55 -28l55 -19h17l18 4l43 129h133l-383 -1134h-1110z M303 1153l258 -780h940l260 786l-41 -4q-16 0 -69 25q-31 25 -74 26h-4q-29 0 -92 -30q-96 -70 -170 -72h-4q-47 0 -137 44q-94 46 -134 48l-106 -47q-106 -47 -170 -49h-5q-54 0 -134 41q-84 43 -95 43q-29 0 -67 -21l-51 -26l-35 -13l-33 6q-20 8 -37 23z" />
<glyph unicode="l" horiz-adv-x="2430" d="M311 1448h129l45 -125q31 -12 84 -27q16 0 77 33t83 35h3q37 0 116 -45l59 -35q29 -10 45 -10q12 0 183 76q49 20 94 22h4q50 0 135 -49l64 -37l20 -6l33 -6q12 0 102 49l45 25l43 20l39 12l35 4q35 0 66 -22l53 -27l53 -18h16l19 4l43 127h129l-371 -1100h-1075z M516 1227l250 -754h909l250 760l-39 -4q-16 0 -67 24q-29 23 -72 25h-3q-29 0 -89 -31q-92 -70 -164 -71h-4q-45 0 -133 45q-92 47 -129 49l-103 -47q-98 -45 -164 -47h-5q-50 0 -130 40q-84 42 -90 41q-25 0 -65 -20l-50 -25l-34 -12l-31 6q-20 8 -37 21zM684 111v127h1073 v-127h-1073z" />
<glyph unicode="m" d="M143 242l31 157q10 55 92 183l113 176q98 154 260 157l993 115l-45 230h-989v133h1088l247 -1151h-1790zM313 377h1444l-90 518l-1028 -115q-55 0 -139 -86l-74 -102q-35 -49 -72 -127z" />
<glyph unicode="n" d="M219 829l830 830l829 -830l-829 -829zM236 829l813 -813l813 813l-813 813zM285 829l764 762l761 -762l-761 -761zM301 829l748 -747l747 747l-747 748z" />
<glyph unicode="o" d="M211 141v1342q0 155 160 155h2h1337q139 0 139 -143v-1354q0 -82 -28.5 -111.5t-110.5 -29.5h-1356q-143 0 -143 141zM322 156q0 -47 45 -47h1329q47 0 47 45v1327q0 49 -60 49h-1314q-47 0 -47 -45v-1329z" />
<glyph unicode="p" d="M96 332l1821 1175l61 -94l-1820 -1175zM96 1413l64 94l1818 -1175l-61 -94z" />
<glyph unicode="q" horiz-adv-x="2011" d="M0 47q0 16 12 41l906 1577q23 39 51 39q33 0 55 -39l879 -1577q12 -25 12 -43q0 -45 -66 -45h-1783q-66 0 -66 47zM170 127l1579 -6l-782 1392z" />
<glyph unicode="r" d="M139 879q0 371 254 622.5t625 251.5q369 0 620.5 -255t251.5 -624q0 -371 -254 -621.5t-624 -250.5q-369 0 -621 254t-252 623zM219 877q0 -334 229.5 -563.5t563.5 -229.5q336 0 564 228.5t228 564.5t-228 564t-564 228q-334 0 -563.5 -229.5t-229.5 -562.5z" />
<glyph unicode="s" d="M84 1380h133l49 -131l43 -18l41 -8q16 0 77.5 33.5t88.5 35.5h3q37 0 118 -45q84 -47 113 -49h2q31 0 157 70q61 33 123 35h5q64 0 141 -54q78 -41 118 -51q31 0 119 57q45 29 84 43l37 9l37 6q29 0 67 -21l56 -28l55 -19h14l19 4l43 129h133l-383 -1136h-1108zM297 1153 l258 -782h938l260 788l-41 -4q-12 0 -67 23q-66 27 -76 28q-47 0 -94 -32q-96 -68 -170 -70h-4q-49 0 -139 44q-94 46 -134 48l-115 -47q-115 -47 -161 -49h-5q-55 0 -135 41q-84 43 -94 43q-12 0 -65 -19l-58 -30l-28 -13l-33 6zM586 621l106 6q0 -51 33 -86q10 -12 59 -21 q41 0 74 35q14 14 33 86q0 37 -33 78q-33 33 -74 35q-37 2 -53 -15q-18 -6 -39 -39l-98 13l59 319h318v-100h-234l-18 -101l86 15q82 0 136 -58.5t54 -140.5q0 -61 -49 -147q-55 -61 -162 -74q-80 0 -139 49l-45 60zM1063 731l4 88q2 47 18 80q41 133 179 137h8q46 0 80 -20 l26 -17l13 -10l22 -28l37 -82l16 -84l2 -64l-6 -94l-18 -72q-12 -49 -70 -106l-45 -25q-16 -8 -65 -10h-3q-60 0 -143 68q-56 71 -56 204q0 17 1 35zM1167 731l4 -110q0 -16 5 -25l18 -39l33 -31l37 -10l34 6l33 29q16 31 25 74l8 106q1 19 1 36q0 84 -32 130q-25 43 -69 51 q-37 0 -64 -33l-24 -79z" />
<glyph unicode="t" d="M84 1380h133l49 -131l43 -18l41 -8q16 0 77.5 33.5t88.5 35.5h3q37 0 118 -45q84 -47 113 -49h2q31 0 157 70q61 33 123 35h5q64 0 141 -54q78 -41 118 -51q31 0 119 57q45 29 84 43l37 9l37 6q29 0 67 -21l56 -28l55 -19h14l19 4l43 129h133l-383 -1136h-1108zM297 1153 l258 -782h938l260 788l-41 -4q-12 0 -67 23q-66 27 -76 28q-47 0 -94 -32q-96 -68 -170 -70h-4q-49 0 -139 44q-94 46 -134 48l-115 -47q-115 -47 -161 -49h-5q-55 0 -135 41q-84 43 -94 43q-12 0 -65 -19l-58 -30l-28 -13l-33 6zM469 0v129h1112v-129h-1112zM555 915v119 h434v-119l-188 -487h-131l192 487h-307zM1063 731l4 88q2 47 18 80q41 133 179 137h8q46 0 80 -20l26 -17l13 -10l22 -28l37 -82l16 -84l2 -64l-6 -94l-18 -72q-12 -49 -70 -106l-45 -25q-16 -8 -65 -10h-3q-60 0 -143 68q-56 71 -56 204q0 17 1 35zM1167 731l4 -110 q0 -16 5 -25l18 -39l33 -31l37 -10l34 6l33 29q16 31 25 74l8 106q1 19 1 36q0 84 -32 130q-25 43 -69 51q-37 0 -64 -33l-24 -79z" />
<glyph unicode="u" d="M84 1585h133l49 -131l43 -18l41 -9q16 0 77.5 34t88.5 36h3q37 0 118 -45q84 -47 113 -49h2q31 0 157 70q61 33 123 34h5q64 0 141 -53q78 -41 118 -51q31 0 119 57q45 29 84 43l37 8l37 7q29 0 67 -21l56 -29l55 -18h14l19 4l43 129h133l-383 -1137h-1108zM297 1358 l258 -783h938l260 789l-41 -4q-12 0 -67 22q-66 27 -76 29q-47 0 -94 -33q-96 -68 -170 -69h-4q-49 0 -139 44q-94 46 -134 48l-115 -47q-115 -47 -161 -49h-5q-55 0 -135 41q-84 43 -94 43q-12 0 -65 -19l-58 -31l-28 -12l-33 6zM469 0v129h1112v-129h-1112zM469 205v129 h1112v-129h-1112zM586 817l102 12q0 -59 33 -92l61 -22q41 0 70 30.5t29 71.5q0 39 -27 66.5t-66 27.5l-32 -6l-35 -6l8 98h27q10 0 71 19q25 20 27 57l-18 45q-4 10 -58 27q-16 0 -55 -21l-18 -28l-11 -54l-102 17q0 47 20 76q6 23 43 59q57 43 123 43q49 0 92 -25 q23 -6 66 -61l22 -78q0 -37 -16 -61q-12 -31 -39 -51l29 -17q14 -8 26 -29q27 -32 27 -100q0 -70 -61 -133q-43 -45 -133 -47h-16q-45 0 -66 10l-62 31l-49 61zM1073 926v8q0 167 86 262q41 33 115 35q16 0 78 -19q37 -18 65 -53l43 -94l10 -59l5 -80v-64l-7 -37 q0 -33 -27.5 -85t-56.5 -78q-16 -14 -47 -29l-63 -8q-197 0 -201 301zM1176 926q-1 -18 -1 -35q0 -76 29 -135q25 -25 70 -43q12 0 65 41q27 39 29 172v8q0 205 -98 209h-3q-28 0 -59 -37q-16 -31 -24 -76z" />
<glyph unicode="v" d="M84 1585h133l49 -131l43 -18l41 -9q16 0 77.5 34t88.5 36h3q37 0 118 -45q84 -47 113 -49h2q31 0 157 70q61 33 123 34h5q64 0 141 -53q78 -41 118 -51q31 0 119 57q45 29 84 43l37 8l37 7q29 0 67 -21l56 -29l55 -18h14l19 4l43 129h133l-383 -1137h-1108zM297 1358 l258 -783h938l260 789l-41 -4q-12 0 -67 22q-66 27 -76 29q-47 0 -94 -33q-96 -68 -170 -69h-4q-49 0 -139 44q-94 46 -134 48l-115 -47q-115 -47 -161 -49h-5q-55 0 -135 41q-84 43 -94 43q-12 0 -65 -19l-58 -31l-28 -12l-33 6zM469 0v129h1112v-129h-1112zM469 205v129 h1112v-129h-1112zM571 766v86l269 379h80v-371h77v-94h-77v-137h-103v137h-246zM690 860h127v189zM1063 936l4 88q2 47 18 80q41 133 179 137h8q46 0 80 -20l26 -17l13 -10l22 -29l37 -82l16 -84l2 -63l-6 -94l-18 -72q-12 -49 -70 -106l-45 -25q-16 -8 -65 -10h-3 q-60 0 -143 67q-56 71 -56 205q0 17 1 35zM1167 936l4 -111q0 -16 5 -24l18 -39l33 -31l37 -10l34 6l33 29q16 31 25 73l8 107q1 19 1 36q0 84 -32 130q-25 43 -69 51q-37 0 -64 -33l-24 -80z" />
<glyph unicode="w" d="M84 1585h133l49 -131l43 -18l41 -9q16 0 77.5 34t88.5 36h3q37 0 118 -45q84 -47 113 -49h2q31 0 157 70q61 33 123 34h5q64 0 141 -53q78 -41 118 -51q31 0 119 57q45 29 84 43l37 8l37 7q29 0 67 -21l56 -29l55 -18h14l19 4l43 129h133l-383 -1137h-1108zM297 1358 l258 -783h938l260 789l-41 -4q-12 0 -67 22q-66 27 -76 29q-47 0 -94 -33q-96 -68 -170 -69h-4q-49 0 -139 44q-94 46 -134 48l-115 -47q-115 -47 -161 -49h-5q-55 0 -135 41q-84 43 -94 43q-12 0 -65 -19l-58 -31l-28 -12l-33 6zM469 0v129h1112v-129h-1112zM469 205v129 h1112v-129h-1112zM586 825l106 6q0 -51 33 -86q10 -12 59 -20q41 0 74 35q14 14 33 86q0 37 -33 78q-33 33 -74 34q-37 2 -53 -14q-18 -6 -39 -39l-98 13l59 319h318v-100h-234l-18 -101l86 15q82 0 136 -58.5t54 -140.5q0 -61 -49 -147q-55 -61 -162 -74q-80 0 -139 49 l-45 59zM1063 936l4 88q2 47 18 80q41 133 179 137h8q46 0 80 -20l26 -17l13 -10l22 -29l37 -82l16 -84l2 -63l-6 -94l-18 -72q-12 -49 -70 -106l-45 -25q-16 -8 -65 -10h-3q-60 0 -143 67q-56 71 -56 205q0 17 1 35zM1167 936l4 -111q0 -16 5 -24l18 -39l33 -31l37 -10 l34 6l33 29q16 31 25 73l8 107q1 19 1 36q0 84 -32 130q-25 43 -69 51q-37 0 -64 -33l-24 -80z" />
<glyph unicode="x" d="M84 1585h133l49 -131l43 -18l41 -9q16 0 77.5 34t88.5 36h3q37 0 118 -45q84 -47 113 -49h2q31 0 157 70q61 33 123 34h5q64 0 141 -53q78 -41 118 -51q31 0 119 57q45 29 84 43l37 8l37 7q29 0 67 -21l56 -29l55 -18h14l19 4l43 129h133l-383 -1137h-1108zM297 1358 l258 -783h938l260 789l-41 -4q-12 0 -67 22q-66 27 -76 29q-47 0 -94 -33q-96 -68 -170 -69h-4q-49 0 -139 44q-94 46 -134 48l-115 -47q-115 -47 -161 -49h-5q-55 0 -135 41q-84 43 -94 43q-12 0 -65 -19l-58 -31l-28 -12l-33 6zM469 0v129h1112v-129h-1112zM469 205v129 h1112v-129h-1112zM578 930v6q0 307 221 311h6q64 0 110 -39q16 -10 39 -53l25 -78l-102 -6l-13 31l-18 35q-2 8 -51 22q-27 0 -50 -16q-16 -8 -24 -23l-21 -37l-16 -77l33 22q37 18 84 19q80 0 132 -58.5t52 -138.5l-6 -62q-6 -63 -92 -124l-96 -23q-76 0 -154 70 q-57 68 -59 219zM692 848l10 -60l39 -45l50 -14q8 0 63 31l16 39l11 45q0 49 -31 80q-18 25 -66 32q-10 0 -65 -30l-23 -35zM1053 940v8q0 165 86 260q41 33 114 35q16 0 78 -18q37 -18 66 -54l43 -94l10 -59l4 -78q1 -13 0 -25q0 -152 -90 -241q-14 -14 -47 -29l-64 -8 q-197 0 -200 303zM1155 940v-14q0 -108 29 -158q16 -18 69 -41q18 0 66 39q27 39 29 174v15q0 115 -29 161q-31 37 -70 39h-3q-28 0 -58 -35q-31 -74 -33 -180z" />
<glyph unicode="y" d="M84 1585h133l49 -131l43 -18l41 -9q16 0 77.5 34t88.5 36h3q37 0 118 -45q84 -47 113 -49h2q31 0 157 70q61 33 123 34h5q64 0 141 -53q78 -41 118 -51q31 0 119 57q45 29 84 43l37 8l37 7q29 0 67 -21l56 -29l55 -18h14l19 4l43 129h133l-383 -1137h-1108zM297 1358 l258 -783h938l260 789l-41 -4q-12 0 -67 22q-66 27 -76 29q-47 0 -94 -33q-96 -68 -170 -69h-4q-49 0 -139 44q-95 46 -134 48l-115 -47q-115 -47 -161 -49h-5q-54 0 -135 41q-84 43 -94 43q-12 0 -65 -19l-58 -31l-28 -12l-33 6zM469 0v129h1112v-129h-1112zM469 205v129 h1112v-129h-1112zM555 1120v119h434v-119l-188 -487h-131l192 487h-307zM1063 936l4 88q2 47 18 80q41 133 179 137h8q46 0 80 -20l26 -17l13 -10l22 -29l37 -82l16 -84l2 -63l-6 -94l-18 -72q-12 -49 -70 -106l-45 -25q-16 -8 -65 -10h-3q-60 0 -143 67q-56 71 -56 205 q0 17 1 35zM1167 936l4 -111q0 -16 5 -24l18 -39l33 -31l37 -10l34 6l33 29q16 31 25 73l8 107q1 19 1 36q0 84 -32 130q-25 43 -69 51q-37 0 -64 -33l-24 -80z" />
<glyph unicode="z" d="M92 1606h133l47 -129q31 -12 86 -27q16 0 78 34t88 36h3q36 0 120 -47l62 -35q29 -12 47 -13q31 0 162 70q76 31 122 33h4q49 0 140 -51l65 -37l23 -6l33 -9q16 0 106 52l47 26l45 21l39 12l37 4q35 0 68 -22l55 -29l55 -19h17l18 5l43 129h133l-383 -1135h-1110z M303 1378l258 -780h940l260 786l-41 -4q-16 0 -69 25q-31 25 -74 27h-3q-29 0 -93 -31q-96 -70 -170 -72h-4q-47 0 -137 44q-94 46 -134 48l-106 -47q-106 -47 -170 -49h-5q-54 0 -134 41q-84 43 -95 43q-29 0 -67 -20l-51 -27l-35 -12l-33 6q-20 8 -37 22zM469 0v129h1112 v-129h-1112zM469 225v129h1112v-129h-1112zM588 1057q0 92 53 152.5t143 60.5q125 0 187 -133l20 -66l4 -100l-6 -105q-2 -23 -18 -73q-33 -96 -135 -131l-31 -7l-31 -4q-63 0 -119 41l-37 53l-22 80l102 9q6 -53 23 -74l55 -21l49 13l33 41l25 59l12 80v-41l-33 -12 l-88 -27q-80 0 -133 61.5t-53 143.5zM696 1057q0 -47 19 -72q16 -16 76 -35q27 0 67 29q13 12 25 86q0 45 -24.5 79t-67.5 34q-31 0 -70 -33q-16 -23 -19 -41zM1061 846l106 6q0 -51 33 -86q10 -12 60 -21q41 0 73 35q14 14 33 86q0 37 -33 78q-33 33 -73 35q-37 2 -54 -14 q-18 -6 -39 -39l-98 12l59 319h318v-100h-234l-18 -100l86 14q82 0 136 -58.5t54 -140.5q0 -61 -49 -147q-55 -61 -161 -74q-80 0 -140 49l-45 60z" />
<glyph unicode="{" horiz-adv-x="2156" d="M127 96q0 16 12 37l850 1483q20 37 49 37q31 0 52 -37l825 -1483q12 -23 12 -41q0 -41 -61 -41h-1678q-61 0 -61 45zM289 170h325l586 1016l-164 289zM750 168h327l353 608l-162 289zM1214 166l560 -2l-277 493z" />
<glyph unicode="|" horiz-adv-x="2156" d="M127 96q0 16 12 37l287 502l-266 -72l-29 105l371 98l84 147l-455 123l29 105l481 -129l348 604q20 37 49 37q31 0 52 -37l335 -602l469 127l29 -105l-444 -118l86 -154l358 -96l-29 -105l-258 70l279 -500q12 -23 12 -39q0 -43 -61 -43h-1678q-61 0 -61 45z" />
<glyph unicode="}" d="M221 805q0 270 31 299q16 18 82 18q274 0 385 -2l-309 197v65l393 -252q88 49 211 50q123 0 241 -43l383 245v-65l-321 -205q82 -41 149 -98q162 166 295 166q82 0 82 -113q0 -264 -31 -297q-16 -18 -81 -18q-242 0 -340 2l247 -158v-66l-354 226q-98 -61 -235 -62 q-145 0 -287 62l-352 -226v66l297 188q-59 35 -109 76q-164 -166 -295 -166q-82 0 -82 111zM272 805q0 -57 31 -57q104 0 223 120q27 29 189 197q-109 2 -355 2q-49 0 -71 -2l-13 -100q-4 -33 -4 -160zM633 901q57 -47 127 -82l213 137l-168 109q-57 -39 -172 -164zM819 793 q115 -45 230 -45q100 0 180 45l-205 131zM858 1096l166 -107l172 109q-90 27 -182 26q-86 0 -156 -28zM1075 956l205 -131q47 35 147 148q-74 61 -165 102zM1350 811q106 -6 354 -6q49 0 72 4q16 106 16 258q0 57 -31 57q-102 0 -223 -118q-16 -16 -188 -195z" />
<glyph horiz-adv-x="1138" d="M-29 535l29 135h104q-2 41 -2 90v41h-131l29 135h117q61 326 321 467q162 88 357 88q186 0 313 -82l-41 -184q-122 100 -276 100q-270 0 -406 -217q-55 -88 -66 -172h682l-26 -135h-672q-2 -20 -2 -39q0 -78 2 -92h643l-26 -135h-596q35 -180 152.5 -287t297.5 -107 q188 0 293 99v-207q-125 -57 -276 -58q-453 0 -611 375q-33 76 -55 185h-154z" />
<glyph unicode="&#xad;" d="M379 1042q-2 268 184.5 452.5t456.5 186.5q272 2 457.5 -183.5t187.5 -457.5q2 -268 -187.5 -456.5t-457.5 -188.5q-270 0 -454.5 188.5t-186.5 458.5zM485 1040q-2 -231 150.5 -386.5t384.5 -155.5q225 0 383 158.5t160 383.5t-157 380t-386 157q-229 2 -381 -152.5 t-154 -384.5zM608 1337h127l92 -479l111 479h147l107 -487l94 487h123l-147 -698h-132l-120 522l-121 -522h-135z" />
<glyph unicode="&#x2000;" horiz-adv-x="921" />
<glyph unicode="&#x2001;" horiz-adv-x="1843" />
<glyph unicode="&#x2002;" horiz-adv-x="921" />
<glyph unicode="&#x2003;" horiz-adv-x="1843" />
<glyph unicode="&#x2004;" horiz-adv-x="614" />
<glyph unicode="&#x2005;" horiz-adv-x="460" />
<glyph unicode="&#x2006;" horiz-adv-x="307" />
<glyph unicode="&#x2007;" horiz-adv-x="307" />
<glyph unicode="&#x2008;" horiz-adv-x="230" />
<glyph unicode="&#x2009;" horiz-adv-x="368" />
<glyph unicode="&#x200a;" horiz-adv-x="102" />
<glyph unicode="&#x2010;" d="M379 1042q-2 268 184.5 452.5t456.5 186.5q272 2 457.5 -183.5t187.5 -457.5q2 -268 -187.5 -456.5t-457.5 -188.5q-270 0 -454.5 188.5t-186.5 458.5zM485 1040q-2 -231 150.5 -386.5t384.5 -155.5q225 0 383 158.5t160 383.5t-157 380t-386 157q-229 2 -381 -152.5 t-154 -384.5zM608 1337h127l92 -479l111 479h147l107 -487l94 487h123l-147 -698h-132l-120 522l-121 -522h-135z" />
<glyph unicode="&#x2011;" d="M379 1042q-2 268 184.5 452.5t456.5 186.5q272 2 457.5 -183.5t187.5 -457.5q2 -268 -187.5 -456.5t-457.5 -188.5q-270 0 -454.5 188.5t-186.5 458.5zM485 1040q-2 -231 150.5 -386.5t384.5 -155.5q225 0 383 158.5t160 383.5t-157 380t-386 157q-229 2 -381 -152.5 t-154 -384.5zM608 1337h127l92 -479l111 479h147l107 -487l94 487h123l-147 -698h-132l-120 522l-121 -522h-135z" />
<glyph unicode="&#x2012;" d="M379 1042q-2 268 184.5 452.5t456.5 186.5q272 2 457.5 -183.5t187.5 -457.5q2 -268 -187.5 -456.5t-457.5 -188.5q-270 0 -454.5 188.5t-186.5 458.5zM485 1040q-2 -231 150.5 -386.5t384.5 -155.5q225 0 383 158.5t160 383.5t-157 380t-386 157q-229 2 -381 -152.5 t-154 -384.5zM608 1337h127l92 -479l111 479h147l107 -487l94 487h123l-147 -698h-132l-120 522l-121 -522h-135z" />
<glyph unicode="&#x2013;" horiz-adv-x="1784" d="M378 1042q-2 268 146.5 452.5t363.5 186.5q217 2 364.5 -183.5t149.5 -457.5q2 -268 -149 -456.5t-365 -188.5q-215 0 -361.5 188.5t-148.5 458.5zM462 1040q-1 -231 120.5 -386.5t305.5 -155.5q180 0 305.5 158.5t127.5 383.5q1 225 -125.5 380t-307.5 157 q-182 2 -303 -152.5t-123 -384.5zM560 1337h101l74 -479l88 479h117l85 -487l75 487h98l-117 -698h-105l-96 522l-96 -522h-107z" />
<glyph unicode="&#x2014;" horiz-adv-x="2808" d="M378 1042q-3 268 294 452.5t727 186.5q433 2 728.5 -183.5t298.5 -457.5q3 -268 -298.5 -456.5t-728.5 -188.5q-430 0 -724 188.5t-297 458.5zM547 1040q-3 -231 239.5 -386.5t612.5 -155.5q358 0 609.5 158.5t255.5 383.5q3 225 -250.5 380t-614.5 157 q-365 2 -607 -152.5t-245 -384.5zM743 1337h202l146 -479l177 479h234l171 -487l149 487h196l-234 -698h-210l-191 522l-193 -522h-215z" />
<glyph unicode="&#x202f;" horiz-adv-x="368" />
<glyph unicode="&#x205f;" horiz-adv-x="460" />
<glyph unicode="&#x20ac;" horiz-adv-x="1138" d="M-29 535l29 135h104q-2 41 -2 90v41h-131l29 135h117q61 326 321 467q162 88 357 88q186 0 313 -82l-41 -184q-122 100 -276 100q-270 0 -406 -217q-55 -88 -66 -172h682l-26 -135h-672q-2 -20 -2 -39q0 -78 2 -92h643l-26 -135h-596q35 -180 152.5 -287t297.5 -107 q188 0 293 99v-207q-125 -57 -276 -58q-453 0 -611 375q-33 76 -55 185h-154z" />
<glyph unicode="&#x25fc;" horiz-adv-x="1587" d="M0 0v1587h1587v-1587h-1587z" />
</font>
</defs>
</svg>
