<?xml version="1.0" encoding="utf-8"?>
<!-- Generator: Adobe Illustrator 21.0.2, SVG Export Plug-In . SVG Version: 6.00 Build 0)  -->
<svg version="1.1" id="Layer_1" xmlns="http://www.w3.org/2000/svg" xmlns:xlink="http://www.w3.org/1999/xlink" x="0px" y="0px"
	 viewBox="0 0 165.5 167.7" style="enable-background:new 0 0 165.5 167.7;" xml:space="preserve">
<style type="text/css">
	.st0{fill:#333333;}
</style>
<g>
	<path class="st0" d="M82.8,91.7c-25.2,0-45.7-20.5-45.7-45.7S57.6,0.4,82.8,0.4s45.7,20.5,45.7,45.7S107.9,91.7,82.8,91.7z
		 M82.8,14.1c-17.6,0-32,14.3-32,32s14.3,32,32,32c17.6,0,31.9-14.3,31.9-32S100.4,14.1,82.8,14.1z"/>
</g>
<g>
	<path class="st0" d="M158.7,167.7H6.9c-3.8,0-6.9-3.1-6.9-6.9C0,115.2,37.1,78,82.8,78s82.8,37.1,82.8,82.8
		C165.5,164.6,162.5,167.7,158.7,167.7z M14.1,153.9h137.4c-3.5-34.9-33-62.2-68.7-62.2C47,91.7,17.5,119.1,14.1,153.9z"/>
</g>
</svg>
