<?xml version="1.0" encoding="utf-8"?>
<!-- Generator: Adobe Illustrator 21.0.2, SVG Export Plug-In . SVG Version: 6.00 Build 0)  -->
<svg version="1.1" id="Layer_1" xmlns="http://www.w3.org/2000/svg" xmlns:xlink="http://www.w3.org/1999/xlink" x="0px" y="0px"
	 viewBox="0 0 161.5 161.5" style="enable-background:new 0 0 161.5 161.5;" xml:space="preserve">
<style type="text/css">
	.st0{fill:#333333;}
</style>
<g>
	<g>
		<path class="st0" d="M154,161.5c-1.9,0-3.8-0.7-5.3-2.2L2.2,12.8c-2.9-2.9-2.9-7.7,0-10.6s7.7-2.9,10.6,0l146.5,146.5
			c2.9,2.9,2.9,7.7,0,10.6C157.8,160.8,155.9,161.5,154,161.5z"/>
	</g>
	<g>
		<path class="st0" d="M7.5,161.5c-1.9,0-3.8-0.7-5.3-2.2c-2.9-2.9-2.9-7.7,0-10.6L148.7,2.2c2.9-2.9,7.7-2.9,10.6,0s2.9,7.7,0,10.6
			L12.8,159.3C11.3,160.8,9.4,161.5,7.5,161.5z"/>
	</g>
</g>
</svg>
