<?xml version="1.0" encoding="utf-8"?>
<!-- Generator: Adobe Illustrator 21.0.2, SVG Export Plug-In . SVG Version: 6.00 Build 0)  -->
<svg version="1.1" id="Layer_1" xmlns="http://www.w3.org/2000/svg" xmlns:xlink="http://www.w3.org/1999/xlink" x="0px" y="0px"
	 viewBox="0 0 171 171" style="enable-background:new 0 0 171 171;" xml:space="preserve">
<style type="text/css">
	.st0{fill:#D0021B;}
</style>
<path class="st0" d="M85.5,0C38.3,0,0,38.3,0,85.5S38.3,171,85.5,171S171,132.7,171,85.5S132.7,0,85.5,0z M120.3,113.7
	c1.8,1.8,1.8,4.8,0,6.6c-0.9,0.9-2.1,1.4-3.3,1.4s-2.4-0.5-3.3-1.4L85.5,92.1l-28.2,28.2c-0.9,0.9-2.1,1.4-3.3,1.4s-2.4-0.5-3.3-1.4
	c-1.8-1.8-1.8-4.8,0-6.6l28.2-28.2L50.7,57.3c-1.8-1.8-1.8-4.8,0-6.6c1.8-1.8,4.8-1.8,6.6,0l28.2,28.2l28.2-28.2
	c1.8-1.8,4.8-1.8,6.6,0c1.8,1.8,1.8,4.8,0,6.6L92.1,85.5L120.3,113.7z"/>
</svg>
