<?xml version="1.0" encoding="utf-8"?>
<!-- Generator: Adobe Illustrator 21.0.2, SVG Export Plug-In . SVG Version: 6.00 Build 0)  -->
<svg version="1.1" id="Layer_1" xmlns="http://www.w3.org/2000/svg" xmlns:xlink="http://www.w3.org/1999/xlink" x="0px" y="0px"
	 viewBox="0 0 197.5 168.4" style="enable-background:new 0 0 197.5 168.4;" xml:space="preserve">
<style type="text/css">
	.st0{fill:#333333;}
</style>
<g>
	<path class="st0" d="M98.7,168.4c-1.5,0-3.1-0.5-4.3-1.5c-2.8-2.1-68.8-52.4-83.5-74.4C-5.6,67.7-3.2,35.2,16.7,15.3
		c20.4-20.4,53.6-20.4,74,0l8,8l8-8c20.4-20.4,53.6-20.4,74,0c19.9,19.9,22.3,52.4,5.8,77.2c-14.7,22-80.7,72.3-83.5,74.4
		C101.8,167.9,100.3,168.4,98.7,168.4z M53.7,14.3c-9.7,0-19.5,3.7-26.9,11.1c-15.1,15.1-16.8,39.9-4,59.1
		c10.3,15.5,54.8,51.3,75.9,67.6c21.1-16.3,65.6-52.2,75.9-67.6c12.8-19.2,11.1-44-4-59.1c-14.8-14.8-38.9-14.8-53.7,0l-13.1,13.1
		c-1.3,1.3-3.2,2.1-5.1,2.1s-3.7-0.8-5.1-2.1L80.6,25.4C73.2,18,63.5,14.3,53.7,14.3z"/>
</g>
</svg>
