<?xml version="1.0" encoding="utf-8"?>
<!-- Generator: Adobe Illustrator 21.0.2, SVG Export Plug-In . SVG Version: 6.00 Build 0)  -->
<svg version="1.1" id="Layer_1" xmlns="http://www.w3.org/2000/svg" xmlns:xlink="http://www.w3.org/1999/xlink" x="0px" y="0px"
	 viewBox="0 0 197.5 168.4" style="enable-background:new 0 0 197.5 168.4;" xml:space="preserve">
<style type="text/css">
	.st0{fill:#333333;}
</style>
<g>
	<path class="st0" d="M98.7,161.2c0,0,67.6-51.4,81.8-72.7c14.5-21.7,12.7-50.6-4.9-68.1l0,0c-17.6-17.6-46.3-17.6-63.9,0L98.7,33.4
		L85.7,20.4c-17.6-17.6-46.3-17.6-63.9,0l0,0C4.2,37.9,2.4,66.8,16.9,88.5C31.1,109.8,98.7,161.2,98.7,161.2z"/>
	<path class="st0" d="M98.7,168.3c-1.5,0-3.1-0.5-4.3-1.5c-2.8-2.1-68.8-52.4-83.5-74.4C-5.6,67.6-3.2,35.2,16.7,15.3
		C26.6,5.4,39.7,0,53.7,0s27.2,5.4,37,15.3l8,8l8-8c9.8-9.8,23-15.3,37-15.3s27.2,5.4,37,15.3c19.9,19.9,22.3,52.4,5.8,77.2
		c-14.7,22-80.7,72.3-83.5,74.4C101.8,167.9,100.3,168.3,98.7,168.3z M53.7,14.4c-10.2,0-19.7,3.9-26.9,11.1
		c-15.1,15.1-16.8,39.9-4,59.1c10.3,15.5,54.8,51.3,75.9,67.6c21.1-16.3,65.6-52.2,75.9-67.6c12.8-19.2,11.1-44-4-59.1
		c-7.1-7.1-16.7-11.1-26.9-11.1s-19.7,3.9-26.9,11.1l-13.1,13.1c-1.3,1.3-3.2,2.1-5.1,2.1s-3.7-0.8-5.1-2.1L80.6,25.4
		C73.5,18.3,63.9,14.4,53.7,14.4z"/>
</g>
</svg>
