<?xml version="1.0" encoding="utf-8"?>
<!-- Generator: Adobe Illustrator 21.0.2, SVG Export Plug-In . SVG Version: 6.00 Build 0)  -->
<svg version="1.1" id="Layer_1" xmlns="http://www.w3.org/2000/svg" xmlns:xlink="http://www.w3.org/1999/xlink" x="0px" y="0px"
	 viewBox="0 0 134.9 168" style="enable-background:new 0 0 134.9 168;" xml:space="preserve">
<style type="text/css">
	.st0{fill:#333333;}
</style>
<g>
	<path class="st0" d="M128,67.4c0,33.5-27.1,60.6-60.6,60.6S6.9,100.9,6.9,67.4S34,6.9,67.4,6.9S128,34,128,67.4z M67.5,35.5
		c-17.6,0-31.9,14.3-31.9,31.9s14.3,31.9,31.9,31.9s31.9-14.3,31.9-31.9S85.1,35.5,67.5,35.5z"/>
	<path class="st0" d="M67.4,134.9C30.3,134.9,0,104.6,0,67.4S30.3,0,67.4,0s67.4,30.3,67.4,67.4S104.6,134.9,67.4,134.9z M67.4,13.7
		c-29.6,0-53.7,24.1-53.7,53.7s24.1,53.7,53.7,53.7c29.6,0,53.7-24.1,53.7-53.7S97.1,13.7,67.4,13.7z M67.5,106.2
		c-21.4,0-38.8-17.4-38.8-38.8c0-21.4,17.4-38.8,38.8-38.8c21.4,0,38.8,17.4,38.8,38.8C106.2,88.8,88.9,106.2,67.5,106.2z
		 M67.5,42.4c-13.8,0-25,11.2-25,25s11.2,25,25,25c13.8,0,25-11.2,25-25S81.3,42.4,67.5,42.4z"/>
</g>
<g>
	<polyline class="st0" points="20.7,106 67.5,161.2 113.9,106 	"/>
	<path class="st0" d="M67.5,168c-2,0-3.9-0.9-5.2-2.4l-46.8-55.2c-2.4-2.9-2.1-7.2,0.8-9.7c2.9-2.4,7.2-2.1,9.7,0.8l41.5,49l41.2-49
		c2.4-2.9,6.8-3.3,9.7-0.8c2.9,2.4,3.3,6.8,0.8,9.7l-46.5,55.2C71.4,167.1,69.5,168,67.5,168C67.5,168,67.5,168,67.5,168z"/>
</g>
</svg>
