<?xml version="1.0" encoding="utf-8"?>
<!-- Generator: Adobe Illustrator 21.0.2, SVG Export Plug-In . SVG Version: 6.00 Build 0)  -->
<svg version="1.1" id="Layer_1" xmlns="http://www.w3.org/2000/svg" xmlns:xlink="http://www.w3.org/1999/xlink" x="0px" y="0px"
	 viewBox="0 0 196.7 149.4" style="enable-background:new 0 0 196.7 149.4;" xml:space="preserve">
<style type="text/css">
	.st0{fill:#333333;}
</style>
<g>
	<path class="st0" d="M189.3,15H7.3c-4.1,0-7.5-3.3-7.5-7.5S3.2,0,7.3,0h182c4.1,0,7.5,3.3,7.5,7.5S193.4,15,189.3,15z"/>
</g>
<g>
	<path class="st0" d="M189.3,82.2H7.3c-4.1,0-7.5-3.4-7.5-7.5c0-4.1,3.3-7.5,7.5-7.5h182c4.1,0,7.5,3.3,7.5,7.5
		C196.7,78.8,193.4,82.2,189.3,82.2z"/>
</g>
<g>
	<path class="st0" d="M189.3,149.4H7.3c-4.1,0-7.5-3.4-7.5-7.5s3.3-7.5,7.5-7.5h182c4.1,0,7.5,3.4,7.5,7.5S193.4,149.4,189.3,149.4z
		"/>
</g>
</svg>
