<?xml version="1.0" encoding="utf-8"?>
<!-- Generator: Adobe Illustrator 21.0.2, SVG Export Plug-In . SVG Version: 6.00 Build 0)  -->
<svg version="1.1" id="Layer_1" xmlns="http://www.w3.org/2000/svg" xmlns:xlink="http://www.w3.org/1999/xlink" x="0px" y="0px"
	 viewBox="0 0 167.4 168.7" style="enable-background:new 0 0 167.4 168.7;" xml:space="preserve">
<style type="text/css">
	.st0{fill:#333333;}
</style>
<g>
	<path class="st0" d="M83.2,168.9c0,0-0.1,0-0.1,0c-46.6-0.1-84.5-38-84.6-84.6c0-22.6,8.7-43.8,24.6-59.7C39,8.8,60.2,0,82.7,0
		c0,0,0.1,0,0.1,0c46.6,0.1,84.5,38,84.6,84.6c0,22.6-8.7,43.8-24.6,59.7C126.9,160.2,105.7,168.9,83.2,168.9z M82.7,15
		c-18.5,0-35.9,7.2-49,20.3C20.6,48.3,13.4,65.8,13.5,84.3c0.1,38.3,31.3,69.6,69.6,69.6c0,0,0.1,0,0.1,0c18.5,0,35.9-7.2,49-20.3
		c13.1-13.1,20.3-30.5,20.3-49.1C152.4,46.3,121.1,15,82.8,15C82.8,15,82.7,15,82.7,15z"/>
</g>
<g>
	<polygon class="st0" points="66.8,60.2 66.8,108.5 108.9,81.7 	"/>
	<path class="st0" d="M66.8,116c-1.2,0-2.5-0.3-3.6-0.9c-2.4-1.3-3.9-3.8-3.9-6.6V60.2c0-2.6,1.4-5,3.6-6.4s5-1.5,7.3-0.3L112.3,75
		c2.4,1.2,3.9,3.6,4.1,6.3c0.1,2.7-1.2,5.2-3.5,6.7l-42.1,26.8C69.6,115.6,68.2,116,66.8,116z M74.3,72.4v22.5l19.6-12.5L74.3,72.4z
		"/>
</g>
</svg>
