<?xml version="1.0" encoding="utf-8"?>
<!-- Generator: Adobe Illustrator 21.0.2, SVG Export Plug-In . SVG Version: 6.00 Build 0)  -->
<svg version="1.1" id="Layer_1" xmlns="http://www.w3.org/2000/svg" xmlns:xlink="http://www.w3.org/1999/xlink" x="0px" y="0px"
	 viewBox="0 0 164.6 171.2" style="enable-background:new 0 0 164.6 171.2;" xml:space="preserve">
<style type="text/css">
	.st0{fill:#333333;}
</style>
<g>
	<path class="st0" d="M71.8,144c-19.2,0-37.2-7.5-50.8-21.1C-7,94.8-7,49.2,21,21.1C34.5,7.5,52.6,0,71.8,0c0,0,0,0,0,0
		c19.2,0,37.2,7.5,50.8,21.1c28,28.1,28,73.7,0,101.8C109,136.5,90.9,144,71.8,144z M71.8,15c-15.2,0-29.4,5.9-40.2,16.7
		c-22.2,22.2-22.2,58.4,0,80.7c10.7,10.8,25,16.7,40.2,16.7s29.4-5.9,40.2-16.7c22.2-22.2,22.2-58.4,0-80.7l0,0
		C101.2,20.9,86.9,15,71.8,15z"/>
</g>
<g>
	<path class="st0" d="M157.1,171.2c-1.9,0-3.8-0.7-5.3-2.2l-41.3-41.4c-2.9-2.9-2.9-7.7,0-10.6c2.9-2.9,7.7-2.9,10.6,0l41.3,41.4
		c2.9,2.9,2.9,7.7,0,10.6C161,170.4,159.1,171.2,157.1,171.2z"/>
</g>
</svg>
