<?xml version="1.0" encoding="utf-8"?>
<!-- Generator: Adobe Illustrator 21.0.2, SVG Export Plug-In . SVG Version: 6.00 Build 0)  -->
<svg version="1.1" id="Layer_1" xmlns="http://www.w3.org/2000/svg" xmlns:xlink="http://www.w3.org/1999/xlink" x="0px" y="0px"
	 viewBox="0 0 160.6 167.5" style="enable-background:new 0 0 160.6 167.5;" xml:space="preserve">
<style type="text/css">
	.st0{fill:#333333;}
</style>
<g>
	<path class="st0" d="M153.7,167.5H6.9c-1.9,0-3.8-0.8-5.1-2.2s-1.9-3.3-1.8-5.3L10.5,49.1c0.3-3.5,3.3-6.2,6.8-6.2h125.8
		c3.5,0,6.5,2.7,6.8,6.2L160.5,160c0.2,1.9-0.5,3.8-1.8,5.3S155.6,167.5,153.7,167.5z M14.4,153.8h131.8L137,56.6H23.6L14.4,153.8z"
		/>
</g>
<g>
	<path class="st0" d="M122.2,55.7h-13.7V42.1c0-15.6-12.7-28.3-28.2-28.3S52,26.4,52,42.1v13.6H38.3V42.1C38.3,18.9,57.1,0,80.3,0
		s41.9,18.9,41.9,42.1V55.7z"/>
</g>
</svg>
