<?xml version="1.0" encoding="utf-8"?>
<!-- Generator: Adobe Illustrator 21.0.2, SVG Export Plug-In . SVG Version: 6.00 Build 0)  -->
<svg version="1.1" id="Layer_1" xmlns="http://www.w3.org/2000/svg" xmlns:xlink="http://www.w3.org/1999/xlink" x="0px" y="0px"
	 viewBox="0 0 176 168.1" style="enable-background:new 0 0 176 168.1;" xml:space="preserve">
<style type="text/css">
	.st0{fill:#333333;}
</style>
<g>
	<path class="st0" d="M37.9,168.1c-1.4,0-2.8-0.4-4-1.3c-2.1-1.5-3.2-4.1-2.7-6.7l9-52.3l-38-37c-1.9-1.8-2.5-4.5-1.7-7
		s3-4.3,5.5-4.7l52.5-7.6L81.9,3.8C83,1.5,85.4,0,88,0l0,0c2.6,0,5,1.5,6.2,3.8l23.5,47.6l52.5,7.6c2.6,0.4,4.7,2.2,5.5,4.7
		c0.8,2.5,0.1,5.2-1.7,7l-38,37l9,52.3c0.4,2.6-0.6,5.2-2.7,6.7c-2.1,1.5-4.9,1.7-7.2,0.5l-47-24.7l-47,24.7
		C40,167.8,38.9,168.1,37.9,168.1z M21.6,70.6l30.6,29.8c1.6,1.6,2.4,3.8,2,6.1L47,148.7l37.9-19.9c2-1.1,4.4-1.1,6.4,0l37.8,19.9
		l-7.2-42.1c-0.4-2.2,0.4-4.5,2-6.1l30.6-29.8l-42.3-6.1c-2.2-0.3-4.2-1.7-5.2-3.8L88,22.4L69.1,60.7c-1,2-2.9,3.4-5.2,3.8
		L21.6,70.6z"/>
</g>
</svg>
