<?xml version="1.0" encoding="utf-8"?>
<!-- Generator: Adobe Illustrator 21.0.2, SVG Export Plug-In . SVG Version: 6.00 Build 0)  -->
<svg version="1.1" id="Layer_1" xmlns="http://www.w3.org/2000/svg" xmlns:xlink="http://www.w3.org/1999/xlink" x="0px" y="0px"
	 viewBox="0 0 171 171" style="enable-background:new 0 0 171 171;" xml:space="preserve">
<style type="text/css">
	.st0{fill:#7ED321;}
</style>
<path class="st0" d="M85.4,0C38.2,0.1-0.1,38.4,0,85.6c0.1,47.2,38.4,85.5,85.6,85.4c47.2-0.1,85.5-38.4,85.4-85.6
	C170.9,38.2,132.6-0.1,85.4,0z M126.7,67.1l-48.9,53.1c-0.9,1-2.1,1.5-3.4,1.5c0,0,0,0,0,0c-1.3,0-2.5-0.5-3.4-1.5l-28.7-31
	c-1.8-1.9-1.6-4.9,0.3-6.6c1.9-1.8,4.9-1.6,6.6,0.3l25.3,27.3l45.4-49.3c1.8-1.9,4.7-2,6.6-0.3C128.4,62.3,128.5,65.2,126.7,67.1z"
	/>
</svg>
