<?xml version="1.0" encoding="utf-8"?>
<!-- Generator: Adobe Illustrator 21.0.2, SVG Export Plug-In . SVG Version: 6.00 Build 0)  -->
<svg version="1.1" id="Layer_1" xmlns="http://www.w3.org/2000/svg" xmlns:xlink="http://www.w3.org/1999/xlink" x="0px" y="0px"
	 viewBox="0 0 165.5 194.9" style="enable-background:new 0 0 165.5 194.9;" xml:space="preserve">
<style type="text/css">
	.st0{fill:#333333;}
</style>
<g>
	<path class="st0" d="M158.7,48.9H6.9c-3.8,0-6.9-3.1-6.9-6.9s3.1-6.9,6.9-6.9h151.8c3.8,0,6.9,3.1,6.9,6.9S162.5,48.9,158.7,48.9z"
		/>
</g>
<g>
	<path class="st0" d="M132.2,194.9H34c-11.4,0-20.6-9.2-20.6-20.6L13.3,42.1c0-1.8,0.7-3.6,2-4.9c1.3-1.3,3-2,4.9-2H146
		c1.8,0,3.6,0.7,4.9,2c1.3,1.3,2,3,2,4.9l-0.1,132.3C152.8,185.7,143.5,194.9,132.2,194.9z M27,48.9l0.1,125.4
		c0,3.8,3.1,6.9,6.9,6.9h98.2c3.8,0,6.9-3.1,6.9-6.9l0.1-125.4H27z"/>
</g>
<g>
	<path class="st0" d="M125,42.1h-13.7c0-15.6-12.7-28.3-28.2-28.3c-15.6,0-28.2,12.7-28.2,28.3H41.1C41.1,18.9,59.9,0,83.1,0
		S125,18.9,125,42.1z"/>
</g>
<g>
	<path class="st0" d="M50.8,160.6c-3.6,0-6.5-2.9-6.5-6.5V77.3c0-3.6,2.9-6.5,6.5-6.5s6.5,2.9,6.5,6.5V154
		C57.4,157.6,54.4,160.6,50.8,160.6z"/>
</g>
<g>
	<path class="st0" d="M82.9,160.6c-3.6,0-6.5-2.9-6.5-6.5V77.3c0-3.6,2.9-6.5,6.5-6.5c3.6,0,6.5,2.9,6.5,6.5V154
		C89.5,157.6,86.5,160.6,82.9,160.6z"/>
</g>
<g>
	<path class="st0" d="M114.7,160.6c-3.6,0-6.5-2.9-6.5-6.5V77.3c0-3.6,2.9-6.5,6.5-6.5s6.5,2.9,6.5,6.5V154
		C121.3,157.6,118.3,160.6,114.7,160.6z"/>
</g>
</svg>
